<svg id="Layer_1" data-name="Layer 1" xmlns="http://www.w3.org/2000/svg" viewBox="0 0 1.35 1.03"><defs><style>.cls-1{fill:#2c646d;fill-opacity:0.5;}.cls-2{fill:#ddd;}.cls-3{fill:#00a2ce;}.cls-4{fill:#004a5b;}</style></defs><polygon class="cls-1" points="1.35 1.03 0.01 1.03 1 0.92 1.35 0.92 1.35 1.03"/><rect class="cls-2" y="0.26" width="0.89" height="0.76"/><path d="M.57,1.07V.5H.72a.15.15,0,0,1,.09,0A.1.1,0,0,1,.85.6V.68S.82.75.77.76.85.8.85.85V1a.1.1,0,0,1,0,.09l-.08,0ZM.73.7V.6s0,0,0,0V.73S.73.72.73.7ZM.73,1V.82s0,0,0,0V1S.73,1,.73,1Z" transform="translate(-0.26 -0.13)"/><polygon class="cls-3" points="0 0.31 0 1.02 0.87 1.02 0.03 1 0 0.31"/><path class="cls-3" d="M1.12.34h0l0,0,0,0H1.1L1,.31a.21.21,0,0,1-.1,0h0S1,.33,1.05.28s.06-.1,0-.12a.17.17,0,0,0-.2,0A.29.29,0,0,0,.81.27a.39.39,0,0,0,0,.06h0s0-.06,0-.06S.63.09.49.14.44.27.52.3a.54.54,0,0,0,.17,0H.61a.27.27,0,0,1-.1,0l-.1,0L.35.3.4.33h0L.26.4h.89v.75l.11-.1V.34ZM.73.32.62.3a.28.28,0,0,1-.11,0,.05.05,0,0,1,0-.08.12.12,0,0,1,.1,0S.74.32.73.32Zm.1,0s0-.07.06-.1S1,.18,1,.21,1,.27,1,.29A.33.33,0,0,1,.83.33Z" transform="translate(-0.26 -0.13)"/><polygon class="cls-4" points="1 0.92 0.89 1.02 0.89 0.27 1 0.21 1 0.92"/></svg>