<svg id="Layer_1" data-name="Layer 1" xmlns="http://www.w3.org/2000/svg" viewBox="0 0 53.51 40.77"><defs><style>.cls-1{fill:none;}.cls-2{fill:#3e6b6b;}.cls-3{fill:#0082a9;}.cls-4{fill:#050505;}.cls-5{fill:#869ea3;}.cls-6{fill:#aeccd4;}.cls-7{fill:#fff206;}</style></defs><path class="cls-1" d="M46,37c0,.87-3.06,3.67-9.34,3.67-11.61,0-11.4-2.8-11.4-3.67s5.12-.49,11.4-.49S46,36.17,46,37Z" transform="translate(-0.99 0.06)"/><rect class="cls-1" x="51.04" y="14.84" width="2.46" height="25.03"/><polygon class="cls-1" points="18.45 37.06 0 39.06 0 13.41 18.45 13.41 18.45 37.06"/><polygon class="cls-1" points="35.51 0 10.12 0 10.12 10.48 50.68 10.56 35.51 0"/><path class="cls-2" d="M22.51,37.78c-.35-.28-1.27-.9-.43-1.18,2.12-.69,8.56-.65,13.8-.65,4.83,0,11.44.18,13.79.79,1.2.32-.1,1-.45,1.32-.77.78-5.93-.1-13.24-.07C24.22,38,23.36,38.48,22.51,37.78Z" transform="translate(-0.99 0.06)"/><path class="cls-3" d="M36,36.8a.23.23,0,0,1-.2-.11l-.24-.34L21.32,34.08a.24.24,0,0,1-.21-.26l.42-20a.23.23,0,0,1,.11-.2.24.24,0,0,1,.14-.05l.08,0,13.92,5,13.49-5h.09a.22.22,0,0,1,.13,0,.27.27,0,0,1,.12.2l.62,19.87A.27.27,0,0,1,50,34l-13.7,2.47-.13.24a.23.23,0,0,1-.21.13Z" transform="translate(-0.99 0.06)"/><path class="cls-4" d="M21.78,13.83l14,5.07,13.58-5.06L50,33.71,36.16,36.2l-.19.35-.3-.43L21.36,33.83l.42-20m0-.5a.52.52,0,0,0-.29.09.49.49,0,0,0-.21.4l-.42,20a.49.49,0,0,0,.42.5l14.1,2.26.18.25a.49.49,0,0,0,.41.22h0a.5.5,0,0,0,.41-.26l.08-.14L50.07,34.2a.51.51,0,0,0,.41-.51l-.62-19.87a.51.51,0,0,0-.23-.4.45.45,0,0,0-.27-.08l-.18,0-13.4,5L22,13.36l-.17,0Z" transform="translate(-0.99 0.06)"/><polygon class="cls-5" points="34.81 19.24 21.76 15.44 21.4 33.09 34.67 35.91 34.97 36.29 35.2 35.9 47.9 33.03 47.43 15.12 34.81 19.24"/><polygon class="cls-6" points="34.88 19.26 22.3 15.89 21.96 32.25 34.7 35.31 34.95 36.04 35.21 35.31 47.34 32.17 47 15.66 34.88 19.26"/><path d="M36,35.1a55.76,55.76,0,0,1-.54-7.94,55.65,55.65,0,0,1,.46-7.94,55.66,55.66,0,0,1,.54,7.94A55.74,55.74,0,0,1,36,35.1Z" transform="translate(-0.99 0.06)"/><path d="M33.17,33.67A22.43,22.43,0,0,1,31,29.2a21.67,21.67,0,0,1-1.28-4.82,21.91,21.91,0,0,1,2.22,4.47A21.67,21.67,0,0,1,33.17,33.67Z" transform="translate(-0.99 0.06)"/><path d="M38,33.79a17,17,0,0,1,1.47-4.13A16.68,16.68,0,0,1,41.8,26a16.85,16.85,0,0,1-1.47,4.14A17.23,17.23,0,0,1,38,33.79Z" transform="translate(-0.99 0.06)"/><path class="cls-7" d="M28.78,30.7a.31.31,0,0,1-.21-.07.33.33,0,0,1-.11-.32l1.64-7-4-4.83a.33.33,0,0,1,.25-.54l5.89,0,3.18-6a.33.33,0,0,1,.29-.18h0A.31.31,0,0,1,36,12l3.17,6,5.74,0a.33.33,0,0,1,.29.18.32.32,0,0,1,0,.34l-3.68,4.81,2,6.71a.33.33,0,0,1-.09.33.31.31,0,0,1-.22.09h-.11l-7.36-2.54L28.9,30.68A.25.25,0,0,1,28.78,30.7Z" transform="translate(-0.99 0.06)"/><path class="cls-4" d="M35.73,12.12,39,18.29h5.93l-3.79,4.94,2.07,6.87-7.48-2.58-6.94,2.87,1.67-7.16-4.08-5,6.09,0,3.27-6.17m0-.65a.65.65,0,0,0-.58.35l-3.08,5.82-5.7,0h0a.65.65,0,0,0-.59.37.64.64,0,0,0,.08.69l3.88,4.71-1.59,6.85a.66.66,0,0,0,.63.8A.74.74,0,0,0,29,31l6.71-2.77L43,30.7a.49.49,0,0,0,.21,0,.66.66,0,0,0,.45-.18.67.67,0,0,0,.17-.66l-2-6.55,3.58-4.68A.65.65,0,0,0,45.5,18a.66.66,0,0,0-.58-.36H39.38L36.3,11.82a.63.63,0,0,0-.57-.35Z" transform="translate(-0.99 0.06)"/></svg>