<svg id="Layer_1" data-name="Layer 1" xmlns="http://www.w3.org/2000/svg" viewBox="0 0 29.93 2.37"><defs><style>.cls-1{fill:#00a2ce;}</style></defs><path class="cls-1" d="M.13,2.18V.08H.67A.69.69,0,0,1,1,.17a.31.31,0,0,1,.14.28v.3c0,.14-.09.25-.27.31.19,0,.28.15.28.3v.41A.37.37,0,0,1,1,2.08a.55.55,0,0,1-.32.1ZM.72.83V.46C.72.39.67.35.59.35V.93C.67.93.72.9.72.83Zm0,1V1.27c0-.07,0-.11-.13-.11v.75c.08,0,.13,0,.13-.11Z" transform="translate(-0.13 -0.06)"/><path class="cls-1" d="M2.17,2.18H1.26V.08h.9V.35H1.73V.92h.39v.25H1.73v.74h.44Z" transform="translate(-0.13 -0.06)"/><path class="cls-1" d="M2.24,1.34h.42v.48c0,.05,0,.07.09.07s.08,0,.08-.07V1.57a.39.39,0,0,0-.15-.26A3.41,3.41,0,0,1,2.31.92.38.38,0,0,1,2.24.71V.48c0-.27.18-.41.53-.41s.48.13.48.37V.8H2.83V.41s0-.06-.07-.06-.08,0-.08.12V.61a.42.42,0,0,0,.16.27,4.59,4.59,0,0,1,.37.39.43.43,0,0,1,.07.25v.26c0,.28-.17.42-.53.42s-.52-.13-.52-.38Z" transform="translate(-0.13 -0.06)"/><path class="cls-1" d="M4.35.36H4.09V2.18H3.63V.36H3.38V.08h1Z" transform="translate(-0.13 -0.06)"/><path class="cls-1" d="M4.43,1.82V.47c0-.27.18-.41.53-.41s.52.14.52.41V1.82a.31.31,0,0,1-.14.28A.66.66,0,0,1,5,2.2C4.61,2.2,4.43,2.08,4.43,1.82Zm.6,0V.42S5,.35,5,.35s-.08,0-.08.07V1.84s0,.07.08.07S5,1.89,5,1.84Z" transform="translate(-0.13 -0.06)"/><path class="cls-1" d="M7.41.08l-.27,2.1H6.59L6.43,1,6.27,2.18H5.8L5.54.08H6l.12,1,.16-1h.52l.13,1L7,.09Z" transform="translate(-0.13 -0.06)"/><path class="cls-1" d="M7.6,2.43l-.09-.07a.29.29,0,0,0,.11-.18H7.46v-.3h.38v.2A.47.47,0,0,1,7.6,2.43Z" transform="translate(-0.13 -0.06)"/><path class="cls-1" d="M9.34,2.18H8.47V.08h.46V1.91h.4Z" transform="translate(-0.13 -0.06)"/><path class="cls-1" d="M10.29,2.18H9.43V.08h.45V1.91h.41Z" transform="translate(-0.13 -0.06)"/><path class="cls-1" d="M11.36.82h-.42V.4s0-.05-.06-.05-.07,0-.07.05V1.86s0,0,.07,0,.06,0,.06,0V1.34h.42v.53a.27.27,0,0,1-.15.23.63.63,0,0,1-.33.09c-.35,0-.53-.12-.53-.38V.47c0-.27.18-.41.53-.41s.48.13.48.38Z" transform="translate(-0.13 -0.06)"/><path class="cls-1" d="M11.83,2.18h-.38v-.3h.38Z" transform="translate(-0.13 -0.06)"/><path class="cls-1" d="M14.42,2.18h-.91V.08h.89V.35H14V.92h.39v.25H14v.74h.44Z" transform="translate(-0.13 -0.06)"/><path class="cls-1" d="M14.5,1.34h.41v.48c0,.05,0,.07.09.07s.08,0,.08-.07V1.57a.35.35,0,0,0-.15-.26,3.33,3.33,0,0,1-.36-.39A.31.31,0,0,1,14.5.71V.48c0-.27.17-.41.53-.41s.48.13.48.37V.8h-.42V.41s0-.06-.07-.06-.08,0-.08.12V.61a.41.41,0,0,0,.15.27,2.72,2.72,0,0,1,.37.39.42.42,0,0,1,.09.25v.26q0,.42-.54.42c-.34,0-.51-.13-.51-.38Z" transform="translate(-0.13 -0.06)"/><path class="cls-1" d="M16.6.36h-.25V2.18h-.46V.36h-.26V.08h1Z" transform="translate(-0.13 -0.06)"/><path class="cls-1" d="M17.94,2.18h-.46l-.08-.56h-.2l-.08.56h-.46L17,.08h.6Zm-.57-.85L17.31.7l-.07.63Z" transform="translate(-0.13 -0.06)"/><path class="cls-1" d="M18,2.18V.08h.54a.69.69,0,0,1,.34.09A.31.31,0,0,1,19,.45v.3c0,.14-.09.25-.27.31.19,0,.29.15.29.3v.41a.41.41,0,0,1-.14.31.53.53,0,0,1-.32.1ZM18.6.83V.46c0-.07-.05-.11-.13-.11V.93C18.55.93,18.6.9,18.6.83Zm0,1V1.27c0-.07-.05-.11-.13-.11v.75c.08,0,.13,0,.13-.11Z" transform="translate(-0.13 -0.06)"/><path class="cls-1" d="M20,2.18h-.86V.08h.46V1.91H20Z" transform="translate(-0.13 -0.06)"/><path class="cls-1" d="M20.54,2.18h-.46V.08h.46Z" transform="translate(-0.13 -0.06)"/><path class="cls-1" d="M20.63,1.34h.42v.48c0,.05,0,.07.08.07s.09,0,.09-.07V1.57a.43.43,0,0,0-.15-.26A3.41,3.41,0,0,1,20.7.92a.31.31,0,0,1-.07-.21V.48c0-.27.18-.41.53-.41s.48.13.48.37V.8h-.42V.41s0-.06-.07-.06-.08,0-.08.12V.61a.42.42,0,0,0,.16.27,3.33,3.33,0,0,1,.36.39.38.38,0,0,1,.08.25v.26c0,.28-.18.42-.53.42s-.52-.13-.52-.38Z" transform="translate(-0.13 -0.06)"/><path class="cls-1" d="M22.82,2.18h-.46v-1h-.12v1h-.46V.08h.46V.92h.12V.08h.46Z" transform="translate(-0.13 -0.06)"/><path class="cls-1" d="M23.81,2.18h-.9V.08h.9V.35h-.43V.92h.39v.25h-.39v.74h.44Z" transform="translate(-0.13 -0.06)"/><path class="cls-1" d="M23.88,2.18V.08h.58a.57.57,0,0,1,.33.11.35.35,0,0,1,.15.31V1.77a.36.36,0,0,1-.14.3.48.48,0,0,1-.34.11Zm.6-.38V.46c0-.07-.05-.11-.13-.11V1.91c.08,0,.13,0,.13-.11Z" transform="translate(-0.13 -0.06)"/><path class="cls-1" d="M26.61,2.18H25.56V1.9L26.07,1a.78.78,0,0,0,.09-.42c0-.1,0-.14-.1-.14A.08.08,0,0,0,26,.48V.83h-.41V.47c0-.27.17-.41.52-.41a.51.51,0,0,1,.42.15.93.93,0,0,1,.11.49.46.46,0,0,1-.05.23l-.52,1h.57Z" transform="translate(-0.13 -0.06)"/><path class="cls-1" d="M26.69,1.82V.47c0-.27.18-.41.54-.41s.53.14.53.41V1.82a.3.3,0,0,1-.15.28.64.64,0,0,1-.38.1.65.65,0,0,1-.39-.1A.29.29,0,0,1,26.69,1.82Zm.61,0V.42s0-.07-.07-.07-.08,0-.08.07V1.84s0,.07.08.07S27.3,1.89,27.3,1.84Z" transform="translate(-0.13 -0.06)"/><path class="cls-1" d="M28.9,2.18H27.84V1.9L28.36,1a1,1,0,0,0,.09-.42c0-.1,0-.14-.1-.14a.08.08,0,0,0-.09.09V.83h-.42V.47c0-.27.18-.41.53-.41a.52.52,0,0,1,.43.15.84.84,0,0,1,.1.49.45.45,0,0,1,0,.23l-.52,1h.57Z" transform="translate(-0.13 -0.06)"/><path class="cls-1" d="M29,1.82V.47c0-.27.18-.41.54-.41s.53.14.53.41V1.82a.3.3,0,0,1-.15.28.64.64,0,0,1-.38.1.7.7,0,0,1-.4-.1A.3.3,0,0,1,29,1.82Zm.61,0V.42a.06.06,0,0,0-.07-.07c-.05,0-.08,0-.08.07V1.84s0,.07.08.07S29.59,1.89,29.59,1.84Z" transform="translate(-0.13 -0.06)"/><path class="cls-1" d="M12.14.17H12V.88h-.18V.17h-.1V.06h.38Z" transform="translate(-0.13 -0.06)"/><path class="cls-1" d="M12.8.88h-.16V.42l-.09.46h-.12L12.32.42V.88h-.14V.06h.23l.08.42.07-.42h.24Z" transform="translate(-0.13 -0.06)"/></svg>