<svg id="Layer_1" data-name="Layer 1" xmlns="http://www.w3.org/2000/svg" viewBox="0 0 20.97 21.33"><defs><style>.cls-1,.cls-6{fill:#004a5b;}.cls-1{fill-opacity:0.5;}.cls-2{fill:#ddd;}.cls-3{fill:#0082a9;}.cls-4{fill:#050505;}.cls-5{fill:#00a2ce;}</style></defs><path class="cls-1" d="M24,30.22c-.75-.24-3.49.55-8.89.55s-9.76.6-9.76,1.36,4.37,1.36,9.76,1.36S31,32.45,24,30.22Z" transform="translate(-5.35 -12.16)"/><polygon class="cls-2" points="16.42 20.05 2.32 19.61 1.64 5.47 16.52 5.47 16.52 20.04 16.42 20.05"/><path class="cls-3" d="M11.1,31.25a.32.32,0,0,1-.32-.32v-6.3a.33.33,0,0,1,.2-.3l2-.85a.27.27,0,0,1,.12,0l3.77,0a.35.35,0,0,1,.14,0l1.87.83a.32.32,0,0,1,.19.3v6.3a.32.32,0,0,1-.32.32Z" transform="translate(-5.35 -12.16)"/><path class="cls-4" d="M13.15,23.78h3.77l1.88.84v6.3H11.1v-6.3l2.05-.85m0-.65a.74.74,0,0,0-.25.05l-2,.85a.64.64,0,0,0-.41.6v6.3a.65.65,0,0,0,.65.65h7.7a.65.65,0,0,0,.65-.65v-6.3a.66.66,0,0,0-.39-.6l-1.87-.83a.58.58,0,0,0-.26-.06H13.15Z" transform="translate(-5.35 -12.16)"/><circle class="cls-3" cx="9.79" cy="9.45" r="3.54"/><path class="cls-4" d="M15.14,18.39a3.22,3.22,0,1,1-3.22,3.21,3.21,3.21,0,0,1,3.22-3.21m0-.65A3.87,3.87,0,1,0,19,21.6a3.87,3.87,0,0,0-3.86-3.86Z" transform="translate(-5.35 -12.16)"/><polygon class="cls-5" points="1.63 5.65 1.64 20.03 15.98 20.07 2.32 19.61 1.63 5.65"/><path class="cls-5" d="M21.25,16.44h.43s.13.06.6-.31a6.14,6.14,0,0,0,.8-.82l-1.5-.17s0,.3-.78.77a3.81,3.81,0,0,1-1.91.53h-.62a5.47,5.47,0,0,0,2.9-1.26c.9-1,1.06-2,.61-2.34-.89-.69-2.66-.69-4.15.66A6.72,6.72,0,0,0,16.24,15a4.16,4.16,0,0,0-.32,1.27s0,.25-.13,0-.61-1.2-.65-1.27c-.43-.79-2.57-3.68-5.31-2.68-1.24.45-1.11,2.62.51,3.38a9.27,9.27,0,0,0,2.46.69h-.65a8,8,0,0,1-1.85-.33c-.7-.27-2.17-1.05-2.17-1.05L7,15.6a4.72,4.72,0,0,0,.86.64l.84.43L9,16.54,7,17.63H21.87V32.2l2.21-2V16.44Zm-6.59-.32c-.14,0-1.5-.27-1.9-.34a5.92,5.92,0,0,1-2.45-1A1,1,0,0,1,10.93,13a2.52,2.52,0,0,1,2.05.75C13.55,14.26,14.92,16.07,14.66,16.12Zm1.92.12c-.25-.18.33-1.39,1.28-2,1.17-.8,2.57-.94,2.67-.36a1.81,1.81,0,0,1-1.11,1.62C18.58,15.94,16.92,16.5,16.58,16.24Z" transform="translate(-5.35 -12.16)"/><polygon class="cls-6" points="18.77 18.02 16.54 20 16.54 5.45 18.77 4.28 18.77 18.02"/></svg>