<svg id="Layer_1" data-name="Layer 1" xmlns="http://www.w3.org/2000/svg" viewBox="0 0 1187.22 648.47"><path d="M70.78,710.39V395h81.6q29.25,0,50.81,13.31t21.56,42.56v43.77q0,33.23-40.47,46.85Q226.94,552,227,587v61.15q0,31.25-20.34,46.74T158.1,710.39Zm88.64-204.6V452q0-16.53-19.35-16.54v87.11Q159.41,522.55,159.42,505.79Zm0,147.41V573.36q0-16.5-19.35-16.5V669.92Q159.41,669.92,159.42,653.2Z" transform="translate(-70.78 -64.78)"/><path d="M395.87,710.39H260.37V395H395v40.47H329.66v85.35h58.95v38.27H329.66V669.92h66.21Z" transform="translate(-70.78 -64.78)"/><path d="M425.55,584.13h62.91V656.5q0,10.79,13.09,10.78,12.65,0,12.65-10.78V619.11q0-17.16-22.88-40.25-44.2-42.9-55-57.63a53.56,53.56,0,0,1-10.78-32.34V453.48q0-61.37,80.18-61.37,71.81,0,71.81,55.87v54.55h-62.9V444.46q0-9.45-10.55-9.46-12.33,0-12.33,18.26l1.32,20.46q0,17.59,23.37,40.91,43.45,41.57,55.24,58.07a62.7,62.7,0,0,1,11.79,37.39v40.25q0,62.91-80.4,62.91-77.54,0-77.53-57.19Z" transform="translate(-70.78 -64.78)"/><path d="M753.09,363.45H714.38V710.39H645.09V363.45H606.38V322.32H753.09Z" transform="translate(-70.78 -64.78)"/><path d="M784.1,656.5v-203q0-61.37,79.51-61.37Q942,392.11,942,453v203q0,27.5-21.85,42.34t-57,14.85Q784.09,713.25,784.1,656.5Zm90.4,3.3V444.9q0-9.45-11.22-9.46-11.67,0-11.66,9.46V659.8q0,9.47,11.66,9.46Q874.5,669.26,874.5,659.8Z" transform="translate(-70.78 -64.78)"/><path d="M1250,395l-40.47,315.42h-82l-24.86-174-23.43,174h-70.71L969.29,395h62.28L1049,540.58,1072.89,395H1151l18.88,145.61L1193.18,395Z" transform="translate(-70.78 -64.78)"/><rect y="257.54" width="504.86" height="41.13"/><rect x="713.32" y="257.54" width="473.9" height="41.13"/><path d="M946.67,235.42l-26.39,1.14c1.41-.07,10.66-1.05,34.94-14.76,16.14-9.1,33.85-30,33.85-30L955.65,178.6s-8.47,16-55.26,37.67c-40,18.56-52.57,19.15-52.57,19.15H780.41S881,222.26,917.82,181.7c35.79-39.41,39.28-76.1,21.3-89.93-35.43-27.25-106-27.21-165.08,26.28-14.3,12.94-38.27,32.28-55.33,60.87-9.26,15.51-12.87,50.94-12.87,50.94s.4,9.55-5.12.71c-4.33-7-24.44-48-26-50.79C657.53,148.38,572.38,33.21,463.48,73.06c-49.4,18.08-44.38,104.41,20.37,134.76,45.06,21.12,137.68,27.6,137.68,27.6h-102s-22.14-2.55-49.8-13.16-73.84-41.5-73.84-41.5L372.45,202s20.17,16.36,35.39,24.08,22.58,9.35,22.58,9.35H70.79V275H1258V235.42ZM657.41,223.29c-6.52,1.25-31.87-4.11-65.33-7.91-47.31-5.37-88.7-29.33-104.61-41.86-25.53-20.11-18.49-71.68,29.16-81.18,50-10,90.58,29.79,97.33,35.35C640.81,149.83,669.85,220.91,657.41,223.29Zm81.52-4c-7.31-20.09,12.45-56.19,57.57-86.91C851.73,94.8,918.1,88.24,923.11,115.8c3.86,21.22-13.8,54.75-52.94,76.67C830.72,214.56,802.32,223.29,738.93,219.3Z" transform="translate(-70.78 -64.78)"/></svg>