<svg id="Layer_1" data-name="Layer 1" xmlns="http://www.w3.org/2000/svg" viewBox="0 0 1169.38 638.74"><path d="M8.92,640.75V330.1H89.34c19.17,0,35.88,4.32,50,13.07s21.23,22.71,21.23,41.88v43.16q0,32.73-39.81,46.11,42,10.47,42.07,44.83v60.26q0,30.83-20.05,46c-13.37,10.22-29.3,15.24-47.78,15.24H8.92Zm87.4-201.53v-53c0-10.81-6.39-16.32-19.08-16.32v85.83C89.93,455.74,96.32,450.23,96.32,439.22Zm0,145.2V505.78c0-10.82-6.39-16.23-19.08-16.23V600.94C89.93,600.94,96.32,595.43,96.32,584.42Z" transform="translate(-8.92 -4.87)"/><path d="M329.21,640.75H195.71V330.1H328.32v39.81H263.93V454H322v37.65h-58.1V600.94h65.18v39.81Z" transform="translate(-8.92 -4.87)"/><path d="M358.41,516.39h61.93v71.28c0,7.07,4.33,10.61,12.88,10.61,8.26,0,12.48-3.54,12.48-10.61V550.8q0-16.95-22.51-39.62c-29-28.11-47.09-47.09-54.17-56.72a52.64,52.64,0,0,1-10.61-31.85v-34.9q0-60.46,78.94-60.46,70.78,0,70.78,55.05v53.77H446.2V378.86c0-6.19-3.44-9.34-10.42-9.34-8.07,0-12.19,6-12.19,18l1.27,20.15c0,11.6,7.67,25,23,40.31q42.76,41,54.36,57.22a61.54,61.54,0,0,1,11.6,36.86v39.62q0,61.94-79.23,61.93-76.39,0-76.39-56.33V516.39Z" transform="translate(-8.92 -4.87)"/><path d="M681.06,299H642.91V640.75H574.69V299H536.54v-40.5H681.06Z" transform="translate(-8.92 -4.87)"/><path d="M711.53,587.67v-200q0-60.46,78.35-60.46,77.28,0,77.27,60v200q0,27.12-21.53,41.68t-56.13,14.65Q711.48,643.65,711.53,587.67Zm89.07,3.24V379.25c0-6.19-3.64-9.34-11-9.34-7.67,0-11.5,3.15-11.5,9.34V590.91c0,6.19,3.83,9.34,11.5,9.34C797,600.25,800.6,597.2,800.6,590.91Z" transform="translate(-8.92 -4.87)"/><path d="M1170.44,330.1l-39.92,310.65h-80.81L1025.23,469.4l-23.1,171.35h-69.6L894,330.1h61.35l17.1,143.43L996,330.1h76.87l18.58,143.43,23-143.43Z" transform="translate(-8.92 -4.87)"/><rect y="253.66" width="497.24" height="40.5"/><rect x="702.61" y="253.66" width="466.77" height="40.5"/><path d="M905.3,172.9,874.53,174c1.37-.09,10.52-1.08,34.4-14.55,15.93-8.94,33.33-29.49,33.33-29.49l-61.64-13.07s-8.35,15.73-54.46,37.06c-39.42,18.28-51.81,18.87-51.81,18.87H708s99.1-13,135.37-52.89C878.66,81.08,882.1,45,864.3,31.34,829.4,4.5,759.9,4.5,701.7,57.19,687.64,70,664.05,89,647.24,117.16c-9.15,15.24-12.68,50.14-12.68,50.14s.39,9.44-5,.69c-4.23-6.88-24.08-47.29-25.56-50C586.88,87.18,503-26.27,395.76,13.05,347.1,30.85,352,115.88,415.82,145.77,460.16,166.61,551.39,173,551.39,173H455.73s-21.82-2.46-49.05-13-72.75-40.89-72.75-40.89l-66.16,20.94s19.85,16.12,34.9,23.69S324.88,173,324.88,173H8.92v38.93H1178.3V173h-273ZM586.78,161c-6.39,1.28-31.36-4-64.39-7.77-46.6-5.31-87.4-28.9-103-41.19-25.17-19.76-18.19-70.59,28.7-79.92,49.26-9.84,89.27,29.29,95.86,34.8C570.46,88.65,599.07,158.65,586.78,161Zm80.32-3.93c-7.18-19.76,12.28-55.35,56.72-85.63C778.18,34.39,843.56,28,848.57,55.13c3.84,20.94-13.56,54-52.1,75.5C757.54,152.36,729.52,161,667.1,157.08Z" transform="translate(-8.92 -4.87)"/></svg>