<svg id="Layer_1" data-name="Layer 1" xmlns="http://www.w3.org/2000/svg" viewBox="0 0 54.65 48.07"><defs><style>.cls-1{fill:#2c646d;fill-opacity:0.5;}.cls-2{fill:#00a2ce;}.cls-3{fill:#004a5b;}.cls-4{fill:none;}</style></defs><polygon class="cls-1" points="54.65 45.13 39.05 44.96 43.95 40.63 54.65 40.63 54.65 45.13"/><path d="M16.79,43.18V17.73h6.59a7.62,7.62,0,0,1,4.1,1.07,3.73,3.73,0,0,1,1.74,3.43v3.54q0,2.68-3.27,3.78,3.45.86,3.45,3.67v4.94a4.46,4.46,0,0,1-1.64,3.77,6.31,6.31,0,0,1-3.92,1.25Zm7.15-16.51V22.33c0-.89-.52-1.34-1.56-1.34v7C23.43,28,23.94,27.57,23.94,26.67Zm0,11.9V32.12c0-.88-.52-1.33-1.56-1.33v9.13C23.43,39.91,23.94,39.46,23.94,38.57Z" transform="translate(-3.37 -1.5)"/><polygon class="cls-2" points="0 13.63 0.02 45.02 38.06 45.07 1.51 44.1 0 13.63"/><path class="cls-2" d="M41.05,10.85h-.37A14.15,14.15,0,0,0,42,10.06a17,17,0,0,0,1.74-1.68l-3.24-.65s-1,.74-3,2a8.45,8.45,0,0,1-4.19,1.16H30.9s5.35-.54,7.37-2.76S40.59,3.74,39.6,3c-1.94-1.5-5.81-1.49-9,1.44a14.53,14.53,0,0,0-3,3.33,9.21,9.21,0,0,0-.71,2.8s0,.52-.28,0S25.19,8,25.11,7.8C24.17,6.08,19.5-.23,13.52,2c-2.7,1-2.43,5.72,1.12,7.39,2.47,1.16,7.55,1.51,7.55,1.51H18.58a16.94,16.94,0,0,1-4-.72C13,9.55,9.82,7.85,9.82,7.85L7.38,9a14,14,0,0,0,1.94,1.32,6.33,6.33,0,0,0,1.24.51H8.09L3.4,13.44h39V46.53l4.83-4.31V10.85Zm-17-.71c-.3.06-3.12-.87-4.66-1a10.42,10.42,0,0,1-4.82-1.93,2.19,2.19,0,0,1,1.34-3.74C18.22,3,20.09,4.8,20.4,5.06,21.64,6.08,24.64,10,24.06,10.14Zm4.19.27C27.7,10,29,7.38,31,6c2.55-1.74,5.61-2,5.84-.77.18,1-.64,2.52-2.44,3.53S29,11,28.25,10.41Z" transform="translate(-3.37 -1.5)"/><polygon class="cls-3" points="43.95 40.63 39.06 44.94 39.06 11.88 43.95 9.34 43.95 40.63"/><rect class="cls-4" x="2.99" y="45.8" width="45.6" height="2.27"/></svg>