<svg id="Layer_1" data-name="Layer 1" xmlns="http://www.w3.org/2000/svg" xmlns:xlink="http://www.w3.org/1999/xlink" viewBox="0 0 137.97 134.71"><defs><style>.cls-1{fill:none;}.cls-2{fill:#231f20;}.cls-3{fill:#01657c;}.cls-4{fill:#00a2ce;}.cls-5{fill-opacity:0.7;fill:url(#USGS_17_Sandy_Dry_Lake_2);}.cls-6{fill:#020202;}</style><pattern id="USGS_17_Sandy_Dry_Lake_2" data-name="USGS 17 Sandy Dry Lake 2" width="72" height="72" patternTransform="matrix(1, 0, 0, -1, -7.36, 928.85)" patternUnits="userSpaceOnUse" viewBox="0 0 72 72"><rect class="cls-1" width="72" height="72"/><rect class="cls-1" width="72" height="72"/><path class="cls-2" d="M21,69a.23.23,0,0,0-.17.07.24.24,0,0,0,0,.36.26.26,0,0,0,.35,0,.24.24,0,0,0,.07-.18.23.23,0,0,0-.07-.17A.22.22,0,0,0,21,69Z"/><path class="cls-2" d="M20,63.75a.31.31,0,0,0-.18.07.27.27,0,0,0,0,.36.27.27,0,0,0,.36,0,.27.27,0,0,0,0-.36A.24.24,0,0,0,20,63.75Z"/><path class="cls-2" d="M20.25,61.5a.26.26,0,0,0-.17.07.25.25,0,0,0-.08.18.29.29,0,0,0,.07.18.27.27,0,0,0,.36,0,.29.29,0,0,0,.07-.18.23.23,0,0,0-.08-.18A.24.24,0,0,0,20.25,61.5Z"/><path class="cls-2" d="M18,59.25a.28.28,0,0,0-.17.07.25.25,0,0,0-.08.18.29.29,0,0,0,.07.18.27.27,0,0,0,.36,0,.27.27,0,0,0,0-.36A.29.29,0,0,0,18,59.25Z"/><path class="cls-2" d="M15.25,61.5a.23.23,0,0,0-.17.07.27.27,0,0,0-.08.18.29.29,0,0,0,.07.18.26.26,0,0,0,.36,0,.24.24,0,0,0,.07-.18.26.26,0,0,0-.25-.25Z"/><path class="cls-2" d="M22.75,52a.23.23,0,0,0-.17.07.25.25,0,0,0-.08.18.26.26,0,0,0,.07.17.25.25,0,0,0,.36,0,.27.27,0,0,0,.07-.18.26.26,0,0,0-.07-.18A.29.29,0,0,0,22.75,52Z"/><path class="cls-2" d="M15.25,49a.23.23,0,0,0-.17.07.25.25,0,0,0-.08.18.28.28,0,0,0,.07.17.25.25,0,0,0,.36,0,.26.26,0,0,0,.07-.18.24.24,0,0,0-.25-.25Z"/><path class="cls-2" d="M14,48a.25.25,0,0,0-.18.08.24.24,0,0,0-.07.17.29.29,0,0,0,.07.18.26.26,0,0,0,.36,0,.26.26,0,0,0,.07-.18.24.24,0,0,0-.07-.18A.29.29,0,0,0,14,48Z"/><path class="cls-2" d="M24,45a.23.23,0,0,0-.17.07.25.25,0,0,0-.08.18.24.24,0,0,0,.07.17.25.25,0,0,0,.36,0,.27.27,0,0,0,.07-.18A.24.24,0,0,0,24,45Z"/><path class="cls-2" d="M30.75,46.25a.23.23,0,0,0-.17.07.24.24,0,0,0,0,.36.26.26,0,0,0,.35,0,.27.27,0,0,0,0-.36A.24.24,0,0,0,30.75,46.25Z"/><path class="cls-2" d="M31.25,48.75a.28.28,0,0,0-.17.07A.25.25,0,0,0,31,49a.26.26,0,0,0,.07.17.25.25,0,0,0,.36,0A.27.27,0,0,0,31.5,49a.24.24,0,0,0-.07-.18A.29.29,0,0,0,31.25,48.75Z"/><path class="cls-2" d="M29.25,53.75a.23.23,0,0,0-.17.07.24.24,0,0,0,0,.36.26.26,0,0,0,.35,0A.24.24,0,0,0,29.5,54a.29.29,0,0,0-.07-.18A.26.26,0,0,0,29.25,53.75Z"/><path class="cls-2" d="M32.25,53.75a.23.23,0,0,0-.17.07A.25.25,0,0,0,32,54a.29.29,0,0,0,.07.18.27.27,0,0,0,.36,0,.27.27,0,0,0,0-.36A.24.24,0,0,0,32.25,53.75Z"/><path class="cls-2" d="M32.5,58.25a.26.26,0,0,0-.17.07.24.24,0,0,0,0,.36.26.26,0,0,0,.35,0,.26.26,0,0,0,.07-.18.23.23,0,0,0-.07-.17A.25.25,0,0,0,32.5,58.25Z"/><path class="cls-2" d="M31.75,60.25a.23.23,0,0,0-.17.07.24.24,0,0,0,0,.36.26.26,0,0,0,.35,0A.24.24,0,0,0,32,60.5a.29.29,0,0,0-.07-.18A.24.24,0,0,0,31.75,60.25Z"/><path class="cls-2" d="M29.25,61.25a.24.24,0,0,0-.25.25.25.25,0,0,0,.08.18.26.26,0,0,0,.35,0,.27.27,0,0,0,0-.36A.29.29,0,0,0,29.25,61.25Z"/><path class="cls-2" d="M32.25,65a.23.23,0,0,0-.17.07.25.25,0,0,0-.08.18.29.29,0,0,0,.07.18.27.27,0,0,0,.36,0,.24.24,0,0,0,.07-.18.29.29,0,0,0-.07-.18A.24.24,0,0,0,32.25,65Z"/><path class="cls-2" d="M32,69a.28.28,0,0,0-.17.07.24.24,0,0,0,0,.36.26.26,0,0,0,.35,0,.27.27,0,0,0,0-.36A.29.29,0,0,0,32,69Z"/><path class="cls-2" d="M29.25,68.75a.23.23,0,0,0-.17.07.24.24,0,0,0,0,.36.26.26,0,0,0,.35,0A.24.24,0,0,0,29.5,69a.26.26,0,0,0-.25-.25Z"/><path class="cls-2" d="M34,70.75a.26.26,0,0,0-.17.07.25.25,0,0,0-.08.18.23.23,0,0,0,.08.18.26.26,0,0,0,.35,0,.24.24,0,0,0,.07-.18.23.23,0,0,0-.07-.17A.25.25,0,0,0,34,70.75Z"/><path class="cls-2" d="M41.5,65a.26.26,0,0,0-.17.07.24.24,0,0,0,0,.36.25.25,0,0,0,.34,0,.24.24,0,0,0,.08-.18.23.23,0,0,0-.07-.17A.22.22,0,0,0,41.5,65Z"/><path class="cls-2" d="M45.5,65.25a.23.23,0,0,0-.17.07.24.24,0,0,0,0,.36.26.26,0,0,0,.35,0,.25.25,0,0,0-.18-.43Z"/><path class="cls-2" d="M40.25,61.75a.23.23,0,0,0-.17.07A.27.27,0,0,0,40,62a.29.29,0,0,0,.07.18.27.27,0,0,0,.36,0A.24.24,0,0,0,40.5,62a.26.26,0,0,0-.25-.25Z"/><path class="cls-2" d="M45,60.25a.23.23,0,0,0-.17.07.24.24,0,0,0,0,.36.26.26,0,0,0,.35,0,.29.29,0,0,0,.07-.18.24.24,0,0,0-.25-.25Z"/><path class="cls-2" d="M45,58.5a.23.23,0,0,0-.17.07.25.25,0,1,0,.35.35.21.21,0,0,0,.07-.17A.24.24,0,0,0,45,58.5Z"/><path class="cls-2" d="M47,57.75a.23.23,0,0,0-.17.07.24.24,0,0,0,0,.36.26.26,0,0,0,.35,0,.27.27,0,0,0,0-.36A.24.24,0,0,0,47,57.75Z"/><path class="cls-2" d="M47,55.75a.26.26,0,0,0-.17.07.24.24,0,0,0,0,.36.26.26,0,0,0,.35,0,.22.22,0,0,0,.07-.17.26.26,0,0,0-.07-.18A.29.29,0,0,0,47,55.75Z"/><path class="cls-2" d="M47.25,49.25a.26.26,0,0,0-.17.07.23.23,0,0,0-.08.18.25.25,0,0,0,.08.18.27.27,0,0,0,.35,0,.24.24,0,0,0,.07-.18.29.29,0,0,0-.07-.18A.24.24,0,0,0,47.25,49.25Z"/><path class="cls-2" d="M39,51.25a.23.23,0,0,0-.17.07.24.24,0,0,0,0,.36.26.26,0,0,0,.35,0,.27.27,0,0,0,0-.36A.24.24,0,0,0,39,51.25Z"/><path class="cls-2" d="M50.25,58.5a.26.26,0,0,0-.17.07.24.24,0,0,0,0,.36.26.26,0,0,0,.35,0,.27.27,0,0,0,0-.36A.29.29,0,0,0,50.25,58.5Z"/><path class="cls-2" d="M52.25,60a.23.23,0,0,0-.17.07.24.24,0,0,0,0,.36.26.26,0,0,0,.35,0,.27.27,0,0,0,0-.36A.24.24,0,0,0,52.25,60Z"/><path class="cls-2" d="M54.75,61a.26.26,0,0,0-.17.07.27.27,0,0,0-.08.18.25.25,0,0,0,.08.18.26.26,0,0,0,.35,0,.24.24,0,0,0,.07-.18.26.26,0,0,0-.07-.18A.29.29,0,0,0,54.75,61Z"/><path class="cls-2" d="M54.75,65.25a.24.24,0,0,0-.17.07.29.29,0,0,0-.08.18.28.28,0,0,0,.07.17.26.26,0,0,0,.36,0A.27.27,0,0,0,55,65.5a.23.23,0,0,0-.07-.17A.25.25,0,0,0,54.75,65.25Z"/><path class="cls-2" d="M56.5,71.25a.26.26,0,0,0-.17.07.27.27,0,0,0-.08.18.31.31,0,0,0,.07.18.25.25,0,0,0,.43-.18.23.23,0,0,0-.07-.17A.25.25,0,0,0,56.5,71.25Z"/><path class="cls-2" d="M64,65.5a.26.26,0,0,0-.17.07.27.27,0,0,0-.08.18.26.26,0,0,0,.43.18.27.27,0,0,0,.07-.18.23.23,0,0,0-.07-.17A.25.25,0,0,0,64,65.5Z"/><path class="cls-2" d="M65,69.5a.26.26,0,0,0-.17.07.24.24,0,0,0,0,.36.26.26,0,0,0,.35,0,.24.24,0,0,0,.07-.18.21.21,0,0,0-.07-.17A.22.22,0,0,0,65,69.5Z"/><path class="cls-2" d="M68,69a.26.26,0,0,0-.17.07.25.25,0,0,0-.08.18.29.29,0,0,0,.07.18.27.27,0,0,0,.36,0,.27.27,0,0,0,0-.36A.29.29,0,0,0,68,69Z"/><path class="cls-2" d="M68,61.75a.26.26,0,0,0-.17.07.25.25,0,0,0-.08.18.29.29,0,0,0,.07.18.27.27,0,0,0,.36,0,.27.27,0,0,0,0-.36A.29.29,0,0,0,68,61.75Z"/><path class="cls-2" d="M64.25,59.75a.26.26,0,0,0-.17.07A.27.27,0,0,0,64,60a.26.26,0,0,0,.07.17.25.25,0,0,0,.35,0A.23.23,0,0,0,64.5,60a.26.26,0,0,0-.25-.25Z"/><path class="cls-2" d="M65.25,56.25a.24.24,0,0,0-.17.07.24.24,0,0,0,0,.36.26.26,0,0,0,.35,0,.22.22,0,0,0,.07-.17.26.26,0,0,0-.25-.25Z"/><path class="cls-2" d="M64,52.25a.26.26,0,0,0-.17.07.24.24,0,0,0,0,.36.26.26,0,0,0,.35,0,.27.27,0,0,0,0-.36A.29.29,0,0,0,64,52.25Z"/><path class="cls-2" d="M66.25,52.25a.25.25,0,0,0-.18.08.24.24,0,0,0-.07.17.26.26,0,0,0,.43.18.26.26,0,0,0,.07-.18.24.24,0,0,0-.07-.18A.29.29,0,0,0,66.25,52.25Z"/><path class="cls-2" d="M68,50.75a.26.26,0,0,0-.17.07.27.27,0,0,0-.08.18.28.28,0,0,0,.07.17.26.26,0,0,0,.36,0,.27.27,0,0,0,.07-.18.23.23,0,0,0-.07-.17A.25.25,0,0,0,68,50.75Z"/><path class="cls-2" d="M69.25,51.75a.23.23,0,0,0-.17.07.24.24,0,0,0,0,.36.26.26,0,0,0,.35,0,.25.25,0,0,0-.18-.43Z"/><path class="cls-2" d="M69.5,54a.23.23,0,0,0-.17.07.24.24,0,0,0,0,.36.26.26,0,0,0,.35,0A.25.25,0,0,0,69.5,54Z"/><path class="cls-2" d="M71.25,54.5a.26.26,0,0,0-.17.07.27.27,0,0,0-.08.18.28.28,0,0,0,.07.17.26.26,0,0,0,.36,0,.27.27,0,0,0,.07-.18.23.23,0,0,0-.07-.17A.25.25,0,0,0,71.25,54.5Z"/><path class="cls-2" d="M8,25a.31.31,0,0,0-.18.07.34.34,0,0,0-.07.18.29.29,0,0,0,.07.18.27.27,0,0,0,.36,0,.24.24,0,0,0,.07-.18A.26.26,0,0,0,8,25Z"/><path class="cls-2" d="M7,19.75a.23.23,0,0,0-.17.07.25.25,0,0,0-.08.18.29.29,0,0,0,.07.18.27.27,0,0,0,.36,0A.26.26,0,0,0,7.25,20,.24.24,0,0,0,7,19.75Z"/><path class="cls-2" d="M7.25,17.5a.26.26,0,0,0-.17.07.25.25,0,0,0-.08.18.31.31,0,0,0,.07.18.27.27,0,0,0,.36,0,.25.25,0,0,0-.18-.43Z"/><path class="cls-2" d="M5,15.25a.26.26,0,0,0-.17.07.25.25,0,0,0-.08.18.24.24,0,0,0,.07.17.26.26,0,0,0,.36,0,.24.24,0,0,0,.07-.18.29.29,0,0,0-.07-.18A.26.26,0,0,0,5,15.25Z"/><path class="cls-2" d="M2.25,17.5a.23.23,0,0,0-.17.07.25.25,0,0,0-.08.18.26.26,0,0,0,.07.17.25.25,0,0,0,.43-.17.26.26,0,0,0-.07-.18A.27.27,0,0,0,2.25,17.5Z"/><path class="cls-2" d="M9.75,8a.23.23,0,0,0-.17.07.25.25,0,0,0-.08.18.29.29,0,0,0,.07.18.27.27,0,0,0,.36,0A.25.25,0,0,0,9.75,8Z"/><path class="cls-2" d="M2.25,5a.28.28,0,0,0-.17.07A.25.25,0,0,0,2,5.25a.29.29,0,0,0,.07.18.27.27,0,0,0,.36,0,.24.24,0,0,0,.07-.18.26.26,0,0,0-.07-.18A.27.27,0,0,0,2.25,5Z"/><path class="cls-2" d="M1,4a.31.31,0,0,0-.18.07.29.29,0,0,0-.07.18.31.31,0,0,0,.07.18.27.27,0,0,0,.36,0,.27.27,0,0,0,0-.36A.29.29,0,0,0,1,4Z"/><path class="cls-2" d="M11,1a.23.23,0,0,0-.17.07.25.25,0,0,0-.08.18.29.29,0,0,0,.07.18.27.27,0,0,0,.36,0A.25.25,0,0,0,11,1Z"/><path class="cls-2" d="M17.75,2.25a.23.23,0,0,0-.17.07.25.25,0,0,0-.08.18.29.29,0,0,0,.07.18.27.27,0,0,0,.36,0A.24.24,0,0,0,18,2.5a.29.29,0,0,0-.07-.18A.26.26,0,0,0,17.75,2.25Z"/><path class="cls-2" d="M18.25,4.75a.28.28,0,0,0-.17.07.25.25,0,0,0,0,.36.27.27,0,0,0,.36,0A.24.24,0,0,0,18.5,5a.22.22,0,0,0-.07-.17A.25.25,0,0,0,18.25,4.75Z"/><path class="cls-2" d="M16.25,9.75a.25.25,0,0,0-.18.08A.24.24,0,0,0,16,10a.29.29,0,0,0,.07.18.27.27,0,0,0,.36,0,.27.27,0,0,0,0-.36A.29.29,0,0,0,16.25,9.75Z"/><path class="cls-2" d="M19.25,9.75a.26.26,0,0,0-.17.07A.25.25,0,0,0,19,10a.29.29,0,0,0,.07.18.27.27,0,0,0,.36,0A.27.27,0,0,0,19.5,10a.23.23,0,0,0-.08-.18A.24.24,0,0,0,19.25,9.75Z"/><path class="cls-2" d="M19.5,14.25a.23.23,0,0,0-.17.07.25.25,0,0,0-.08.18.26.26,0,0,0,.07.17.25.25,0,0,0,.36,0,.27.27,0,0,0,.07-.18.26.26,0,0,0-.07-.18A.24.24,0,0,0,19.5,14.25Z"/><path class="cls-2" d="M18.75,16.25a.23.23,0,0,0-.17.07.24.24,0,0,0,0,.36.26.26,0,0,0,.35,0A.26.26,0,0,0,19,16.5a.23.23,0,0,0-.07-.17A.25.25,0,0,0,18.75,16.25Z"/><path class="cls-2" d="M16.25,17.25a.31.31,0,0,0-.18.07.29.29,0,0,0-.07.18.28.28,0,0,0,.07.17.26.26,0,0,0,.36,0,.26.26,0,0,0,.07-.18.24.24,0,0,0-.25-.25Z"/><path class="cls-2" d="M19.25,21a.26.26,0,0,0-.17.07.27.27,0,0,0-.08.18.29.29,0,0,0,.07.18.27.27,0,0,0,.36,0,.27.27,0,0,0,.07-.18.24.24,0,0,0-.07-.18A.29.29,0,0,0,19.25,21Z"/><path class="cls-2" d="M19,25a.26.26,0,0,0-.17.07.27.27,0,0,0-.08.18.29.29,0,0,0,.07.18.27.27,0,0,0,.36,0,.29.29,0,0,0,.07-.18A.26.26,0,0,0,19,25Z"/><path class="cls-2" d="M16.25,24.75a.29.29,0,0,0-.18.07A.31.31,0,0,0,16,25a.29.29,0,0,0,.07.18.27.27,0,0,0,.36,0A.24.24,0,0,0,16.5,25a.26.26,0,0,0-.07-.18A.24.24,0,0,0,16.25,24.75Z"/><path class="cls-2" d="M21,26.75a.23.23,0,0,0-.17.07.24.24,0,0,0,0,.36.26.26,0,0,0,.35,0,.26.26,0,0,0,.07-.18.23.23,0,0,0-.07-.17A.22.22,0,0,0,21,26.75Z"/><path class="cls-2" d="M28.5,21a.26.26,0,0,0-.17.07.24.24,0,0,0,0,.36.26.26,0,0,0,.35,0,.27.27,0,0,0,.07-.18.26.26,0,0,0-.07-.18A.29.29,0,0,0,28.5,21Z"/><path class="cls-2" d="M32.5,21.25a.26.26,0,0,0-.17.07.24.24,0,0,0,0,.36.26.26,0,0,0,.35,0,.27.27,0,0,0,0-.36A.29.29,0,0,0,32.5,21.25Z"/><path class="cls-2" d="M27.25,17.75a.25.25,0,0,0-.18.08A.24.24,0,0,0,27,18a.23.23,0,0,0,.08.18.26.26,0,0,0,.35,0A.24.24,0,0,0,27.5,18a.26.26,0,0,0-.07-.18A.27.27,0,0,0,27.25,17.75Z"/><path class="cls-2" d="M32,16.25a.28.28,0,0,0-.17.07.25.25,0,0,0-.08.18.26.26,0,0,0,.07.17.25.25,0,0,0,.36,0,.27.27,0,0,0,.07-.18.24.24,0,0,0-.07-.18A.29.29,0,0,0,32,16.25Z"/><path class="cls-2" d="M32,14.5a.23.23,0,0,0-.17.07.25.25,0,0,0-.08.18.26.26,0,0,0,.07.17.25.25,0,0,0,.36,0,.27.27,0,0,0,.07-.18.26.26,0,0,0-.07-.18A.24.24,0,0,0,32,14.5Z"/><path class="cls-2" d="M34,13.75a.25.25,0,0,0-.18.08.24.24,0,0,0-.07.17.23.23,0,0,0,.08.18.26.26,0,0,0,.35,0,.24.24,0,0,0,.07-.18.26.26,0,0,0-.07-.18A.27.27,0,0,0,34,13.75Z"/><path class="cls-2" d="M34,11.75a.23.23,0,0,0-.17.07.24.24,0,0,0,0,.36.26.26,0,0,0,.35,0,.27.27,0,0,0,.07-.18.26.26,0,0,0-.07-.18A.29.29,0,0,0,34,11.75Z"/><path class="cls-2" d="M34.25,5.25a.26.26,0,0,0-.17.07.24.24,0,0,0,0,.36.26.26,0,0,0,.35,0,.27.27,0,0,0,0-.36A.29.29,0,0,0,34.25,5.25Z"/><path class="cls-2" d="M26,7.25a.23.23,0,0,0-.17.07.25.25,0,1,0,.35.35.22.22,0,0,0,.07-.17A.24.24,0,0,0,26,7.25Z"/><path class="cls-2" d="M37.25,14.5a.26.26,0,0,0-.17.07.24.24,0,0,0,0,.36.25.25,0,0,0,.34,0,.23.23,0,0,0,.08-.18.23.23,0,0,0-.07-.17A.22.22,0,0,0,37.25,14.5Z"/><path class="cls-2" d="M39.25,16a.26.26,0,0,0-.17.07.24.24,0,0,0,0,.36.26.26,0,0,0,.35,0,.26.26,0,0,0,.07-.18.23.23,0,0,0-.07-.17A.22.22,0,0,0,39.25,16Z"/><path class="cls-2" d="M41.75,17a.26.26,0,0,0-.17.07.25.25,0,0,0-.08.18.23.23,0,0,0,.08.18.26.26,0,0,0,.35,0,.24.24,0,0,0,.07-.18.23.23,0,0,0-.07-.17A.25.25,0,0,0,41.75,17Z"/><path class="cls-2" d="M41.75,21.25a.23.23,0,0,0-.17.07.24.24,0,0,0,0,.36.26.26,0,0,0,.35,0A.24.24,0,0,0,42,21.5a.26.26,0,0,0-.07-.18A.29.29,0,0,0,41.75,21.25Z"/><path class="cls-2" d="M43.5,27.25a.28.28,0,0,0-.17.07.24.24,0,0,0,0,.36.26.26,0,0,0,.35,0,.25.25,0,0,0-.18-.43Z"/><path class="cls-2" d="M51,21.5a.28.28,0,0,0-.17.07.24.24,0,0,0,0,.36.26.26,0,0,0,.35,0A.25.25,0,0,0,51,21.5Z"/><path class="cls-2" d="M52,25.5a.26.26,0,0,0-.17.07.24.24,0,0,0,0,.36.26.26,0,0,0,.35,0,.27.27,0,0,0,.07-.18.23.23,0,0,0-.07-.17A.22.22,0,0,0,52,25.5Z"/><path class="cls-2" d="M55,25a.23.23,0,0,0-.17.07.24.24,0,0,0,0,.36.26.26,0,0,0,.35,0,.27.27,0,0,0,0-.36A.24.24,0,0,0,55,25Z"/><path class="cls-2" d="M55,17.75a.28.28,0,0,0-.17.07.24.24,0,0,0,0,.36.26.26,0,0,0,.35,0,.27.27,0,0,0,0-.36A.24.24,0,0,0,55,17.75Z"/><path class="cls-2" d="M51.25,15.75a.26.26,0,0,0-.17.07.24.24,0,0,0,0,.36.26.26,0,0,0,.35,0,.27.27,0,0,0,0-.36A.29.29,0,0,0,51.25,15.75Z"/><path class="cls-2" d="M52.25,12.25a.23.23,0,0,0-.17.07.24.24,0,0,0,0,.36.26.26,0,0,0,.35,0,.27.27,0,0,0,.07-.18.23.23,0,0,0-.07-.17A.22.22,0,0,0,52.25,12.25Z"/><path class="cls-2" d="M51,8.25a.26.26,0,0,0-.17.07.24.24,0,0,0,0,.36.26.26,0,0,0,.35,0,.26.26,0,0,0,.07-.18A.26.26,0,0,0,51,8.25Z"/><path class="cls-2" d="M53.25,8.25a.26.26,0,0,0-.17.07A.27.27,0,0,0,53,8.5a.26.26,0,0,0,.43.18.27.27,0,0,0,.07-.18.23.23,0,0,0-.07-.17A.25.25,0,0,0,53.25,8.25Z"/><path class="cls-2" d="M55,6.75a.28.28,0,0,0-.17.07.24.24,0,0,0,0,.36.26.26,0,0,0,.35,0,.27.27,0,0,0,0-.36A.24.24,0,0,0,55,6.75Z"/><path class="cls-2" d="M56.25,7.75a.28.28,0,0,0-.17.07.24.24,0,0,0,0,.36.26.26,0,0,0,.35,0A.26.26,0,0,0,56.5,8a.24.24,0,0,0-.25-.25Z"/><path class="cls-2" d="M56.5,10a.26.26,0,0,0-.17.07.29.29,0,0,0-.08.18.25.25,0,0,0,.08.18.26.26,0,0,0,.35,0,.22.22,0,0,0,.07-.17.23.23,0,0,0-.07-.17A.25.25,0,0,0,56.5,10Z"/><path class="cls-2" d="M58.25,10.5a.26.26,0,0,0-.17.07.27.27,0,0,0-.08.18.26.26,0,0,0,.43.18.27.27,0,0,0,.07-.18.26.26,0,0,0-.25-.25Z"/><path class="cls-2" d="M21,45a.23.23,0,0,0-.17.07.24.24,0,0,0,0,.36.26.26,0,0,0,.35,0A.25.25,0,0,0,21,45Z"/><path class="cls-2" d="M22.75,48a.24.24,0,0,0-.25.25.25.25,0,0,0,.08.18.26.26,0,0,0,.35,0,.27.27,0,0,0,0-.36A.27.27,0,0,0,22.75,48Z"/><path class="cls-2" d="M25.25,47.5a.28.28,0,0,0-.17.07.24.24,0,0,0,0,.36.26.26,0,0,0,.35,0,.27.27,0,0,0,0-.36A.29.29,0,0,0,25.25,47.5Z"/><path class="cls-2" d="M35.25,48.75a.23.23,0,0,0-.17.07.24.24,0,0,0,0,.36.26.26,0,0,0,.35,0A.24.24,0,0,0,35.5,49a.29.29,0,0,0-.07-.18A.24.24,0,0,0,35.25,48.75Z"/><path class="cls-2" d="M39,47.25a.23.23,0,0,0-.17.07.24.24,0,0,0,0,.36.26.26,0,0,0,.35,0,.24.24,0,0,0,.07-.18.29.29,0,0,0-.07-.18A.26.26,0,0,0,39,47.25Z"/><path class="cls-2" d="M45,42.5a.23.23,0,0,0-.17.07.24.24,0,0,0,0,.36.26.26,0,0,0,.35,0,.27.27,0,0,0,0-.36A.26.26,0,0,0,45,42.5Z"/><path class="cls-2" d="M46.25,43a.26.26,0,0,0-.17.07.24.24,0,0,0,0,.36.25.25,0,0,0,.34,0,.24.24,0,0,0,.08-.18.23.23,0,0,0-.07-.17A.22.22,0,0,0,46.25,43Z"/><path class="cls-2" d="M55.25,44a.26.26,0,0,0-.17.07.24.24,0,0,0,0,.36.26.26,0,0,0,.35,0,.27.27,0,0,0,0-.36A.29.29,0,0,0,55.25,44Z"/><path class="cls-2" d="M51.25,46.75a.23.23,0,0,0-.17.07.24.24,0,0,0,0,.36.26.26,0,0,0,.35,0A.24.24,0,0,0,51.5,47a.29.29,0,0,0-.07-.18A.24.24,0,0,0,51.25,46.75Z"/><path class="cls-2" d="M52,42.5a.26.26,0,0,0-.17.07.24.24,0,0,0,0,.36.26.26,0,0,0,.35,0,.27.27,0,0,0,.07-.18.23.23,0,0,0-.07-.17A.22.22,0,0,0,52,42.5Z"/><path class="cls-2" d="M62.5,36.5a.26.26,0,0,0-.17.07.24.24,0,0,0,0,.36.26.26,0,0,0,.34,0,.23.23,0,0,0,.08-.18.24.24,0,0,0-.25-.25Z"/><path class="cls-2" d="M58.25,33.75a.24.24,0,0,0-.17.07A.27.27,0,0,0,58,34a.26.26,0,0,0,.43.18A.27.27,0,0,0,58.5,34a.26.26,0,0,0-.25-.25Z"/><path class="cls-2" d="M49,33a.24.24,0,0,0-.17.07.27.27,0,0,0-.08.18.26.26,0,0,0,.43.18.27.27,0,0,0,.07-.18.23.23,0,0,0-.07-.17A.25.25,0,0,0,49,33Z"/><path class="cls-2" d="M48,30.75a.23.23,0,0,0-.17.07.24.24,0,0,0,0,.36.25.25,0,0,0,.34,0,.23.23,0,0,0,.08-.18.23.23,0,0,0-.07-.17A.23.23,0,0,0,48,30.75Z"/><path class="cls-2" d="M52,29a.25.25,0,0,0-.18.08.24.24,0,0,0-.07.17.25.25,0,0,0,.08.18.26.26,0,0,0,.35,0,.27.27,0,0,0,0-.36A.29.29,0,0,0,52,29Z"/><path class="cls-2" d="M53.5,27a.26.26,0,0,0-.17.07.24.24,0,0,0,0,.36.26.26,0,0,0,.35,0,.27.27,0,0,0,0-.36A.29.29,0,0,0,53.5,27Z"/><path class="cls-2" d="M62.25,24a.26.26,0,0,0-.17.07.27.27,0,0,0-.08.18.26.26,0,0,0,.43.18.27.27,0,0,0,.07-.18.23.23,0,0,0-.07-.17A.25.25,0,0,0,62.25,24Z"/><path class="cls-2" d="M65,20.25a.28.28,0,0,0-.17.07.25.25,0,0,0-.08.18.23.23,0,0,0,.08.18.27.27,0,0,0,.35,0,.29.29,0,0,0,.07-.18.24.24,0,0,0-.25-.25Z"/><path class="cls-2" d="M67,20.25a.26.26,0,0,0-.17.07.24.24,0,0,0,0,.36.27.27,0,0,0,.35,0,.25.25,0,0,0-.18-.43Z"/><path class="cls-2" d="M69.5,27a.28.28,0,0,0-.17.07.24.24,0,0,0,0,.36.26.26,0,0,0,.35,0A.25.25,0,0,0,69.5,27Z"/><path class="cls-2" d="M60,33a.23.23,0,0,0-.17.07.24.24,0,0,0,0,.36.26.26,0,0,0,.35,0,.27.27,0,0,0,0-.36A.24.24,0,0,0,60,33Z"/><path class="cls-2" d="M47.25,24.25a.26.26,0,0,0-.17.07.25.25,0,0,0-.08.18.23.23,0,0,0,.08.18.27.27,0,0,0,.35,0,.29.29,0,0,0,.07-.18.24.24,0,0,0-.25-.25Z"/><path class="cls-2" d="M32.5,25a.28.28,0,0,0-.17.07.24.24,0,0,0,0,.36.26.26,0,0,0,.35,0,.27.27,0,0,0,0-.36A.29.29,0,0,0,32.5,25Z"/><path class="cls-2" d="M37,27.5a.28.28,0,0,0-.17.07.27.27,0,0,0-.08.18.24.24,0,0,0,.07.17.25.25,0,0,0,.36,0,.26.26,0,0,0,.07-.18.22.22,0,0,0-.07-.17A.25.25,0,0,0,37,27.5Z"/><path class="cls-2" d="M26.25,34.25a.28.28,0,0,0-.17.07.24.24,0,0,0,0,.36.26.26,0,0,0,.35,0,.27.27,0,0,0,0-.36A.29.29,0,0,0,26.25,34.25Z"/><path class="cls-2" d="M29.75,36.5a.23.23,0,0,0-.17.07.24.24,0,0,0,0,.36.26.26,0,0,0,.35,0,.26.26,0,0,0,.07-.18.23.23,0,0,0-.07-.17A.22.22,0,0,0,29.75,36.5Z"/><path class="cls-2" d="M17,43.5a.23.23,0,0,0-.17.07.25.25,0,0,0-.08.18.28.28,0,0,0,.07.17.25.25,0,0,0,.36,0,.26.26,0,0,0,.07-.18A.24.24,0,0,0,17,43.5Z"/><path class="cls-2" d="M10.5,42.5a.23.23,0,0,0-.17.07.25.25,0,0,0-.08.18.28.28,0,0,0,.07.17.25.25,0,0,0,.36,0,.27.27,0,0,0,.07-.18.26.26,0,0,0-.07-.18A.24.24,0,0,0,10.5,42.5Z"/><path class="cls-2" d="M6,40.5a.23.23,0,0,0-.17.07.25.25,0,0,0-.08.18.28.28,0,0,0,.07.17.25.25,0,0,0,.36,0,.27.27,0,0,0,.07-.18A.24.24,0,0,0,6,40.5Z"/><path class="cls-2" d="M2.5,36.75a.24.24,0,0,0-.17.07.27.27,0,0,0-.08.18.25.25,0,0,0,.08.18.25.25,0,0,0,.34,0,.25.25,0,0,0-.17-.43Z"/><path class="cls-2" d="M11.25,35.25a.29.29,0,0,0-.18.07.31.31,0,0,0-.07.18.29.29,0,0,0,.07.18.27.27,0,0,0,.36,0,.25.25,0,0,0-.18-.43Z"/><path class="cls-2" d="M17,30a.23.23,0,0,0-.17.07.25.25,0,0,0-.08.18.31.31,0,0,0,.07.18.27.27,0,0,0,.36,0,.24.24,0,0,0,.07-.18.29.29,0,0,0-.07-.18A.24.24,0,0,0,17,30Z"/><path class="cls-2" d="M12.75,36a.26.26,0,0,0-.17.07.25.25,0,0,0-.08.18.26.26,0,0,0,.43.18.27.27,0,0,0,0-.36A.26.26,0,0,0,12.75,36Z"/><path class="cls-2" d="M26.5,41.75a.23.23,0,0,0-.17.07.24.24,0,0,0,0,.36.26.26,0,0,0,.35,0,.27.27,0,0,0,0-.36A.24.24,0,0,0,26.5,41.75Z"/><path class="cls-2" d="M37.75,41a.23.23,0,0,0-.17.07.24.24,0,0,0,0,.36.26.26,0,0,0,.35,0,.27.27,0,0,0,0-.36A.26.26,0,0,0,37.75,41Z"/><path class="cls-2" d="M39.5,39.5a.23.23,0,0,0-.17.07.25.25,0,1,0,.35.35.22.22,0,0,0,.07-.17.26.26,0,0,0-.07-.18A.29.29,0,0,0,39.5,39.5Z"/><path class="cls-2" d="M28,30a.28.28,0,0,0-.17.07.27.27,0,0,0-.08.18.28.28,0,0,0,.07.17.25.25,0,0,0,.35,0,.24.24,0,0,0,.08-.18A.26.26,0,0,0,28,30Z"/><path class="cls-2" d="M6.5,51.5a.26.26,0,0,0-.17.07.27.27,0,0,0-.08.18.29.29,0,0,0,.07.18.27.27,0,0,0,.36,0,.24.24,0,0,0,.07-.18.26.26,0,0,0-.25-.25Z"/><path class="cls-2" d="M10.25,51.75a.26.26,0,0,0-.17.07A.25.25,0,0,0,10,52a.29.29,0,0,0,.07.18.27.27,0,0,0,.36,0,.25.25,0,0,0-.18-.43Z"/><path class="cls-2" d="M11.75,48.5a.23.23,0,0,0-.17.07.25.25,0,0,0-.08.18.28.28,0,0,0,.07.17.25.25,0,0,0,.36,0,.27.27,0,0,0,.07-.18.24.24,0,0,0-.25-.25Z"/><path class="cls-2" d="M3,46.25a.26.26,0,0,0-.17.07.25.25,0,0,0-.08.18.29.29,0,0,0,.07.18.27.27,0,0,0,.36,0,.27.27,0,0,0,0-.36A.26.26,0,0,0,3,46.25Z"/><path class="cls-2" d="M64.25,42.5a.26.26,0,0,0-.17.07.27.27,0,0,0-.08.18.26.26,0,0,0,.07.17.25.25,0,0,0,.35,0,.23.23,0,0,0,.08-.18.26.26,0,0,0-.25-.25Z"/><path class="cls-2" d="M67.5,41.25a.26.26,0,0,0-.17.07.25.25,0,0,0-.08.18.26.26,0,0,0,.43.18.27.27,0,0,0,.07-.18.26.26,0,0,0-.07-.18A.29.29,0,0,0,67.5,41.25Z"/><path class="cls-2" d="M69.5,42.25a.26.26,0,0,0-.17.07.24.24,0,0,0,0,.36.26.26,0,0,0,.35,0,.27.27,0,0,0,0-.36A.29.29,0,0,0,69.5,42.25Z"/><path class="cls-2" d="M7.25,56.25a.25.25,0,0,0-.18.08A.24.24,0,0,0,7,56.5a.29.29,0,0,0,.07.18.27.27,0,0,0,.36,0,.25.25,0,0,0-.18-.43Z"/><path class="cls-2" d="M1.5,63a.31.31,0,0,0-.18.07.27.27,0,0,0,0,.36.27.27,0,0,0,.36,0,.27.27,0,0,0,0-.36A.29.29,0,0,0,1.5,63Z"/><path class="cls-2" d="M14.5,65.5a.23.23,0,0,0-.17.07.25.25,0,0,0-.08.18.26.26,0,0,0,.07.17.25.25,0,0,0,.36,0,.25.25,0,0,0-.18-.43Z"/><path class="cls-2" d="M8.5,66.75a.23.23,0,0,0-.17.07.25.25,0,0,0-.08.18.29.29,0,0,0,.07.18.26.26,0,0,0,.36,0A.21.21,0,0,0,8.75,67a.26.26,0,0,0-.07-.18A.24.24,0,0,0,8.5,66.75Z"/><path class="cls-2" d="M3.5,69.5a.25.25,0,0,0-.18.08.24.24,0,0,0-.07.17.25.25,0,0,0,.08.18.26.26,0,0,0,.35,0,.25.25,0,0,0-.18-.43Z"/><path class="cls-2" d="M3.75,66a.26.26,0,0,0-.17.07.25.25,0,0,0-.08.18.31.31,0,0,0,.07.18.27.27,0,0,0,.36,0,.27.27,0,0,0,0-.36A.26.26,0,0,0,3.75,66Z"/><path class="cls-2" d="M12.75,57.75a.26.26,0,0,0-.17.07.27.27,0,0,0-.08.18.29.29,0,0,0,.07.18.27.27,0,0,0,.36,0A.24.24,0,0,0,13,58a.26.26,0,0,0-.25-.25Z"/><path class="cls-2" d="M18.5,52.75a.23.23,0,0,0-.17.07.25.25,0,0,0-.08.18.26.26,0,0,0,.07.17.25.25,0,0,0,.36,0,.27.27,0,0,0,.07-.18.24.24,0,0,0-.07-.18A.29.29,0,0,0,18.5,52.75Z"/><path class="cls-2" d="M21.25,35a.23.23,0,0,0-.17.07.27.27,0,0,0-.08.18.29.29,0,0,0,.07.18.27.27,0,0,0,.36,0,.24.24,0,0,0,.07-.18.26.26,0,0,0-.25-.25Z"/><path class="cls-2" d="M.75,27.75a.26.26,0,0,0-.17.07.24.24,0,0,0,0,.36.26.26,0,0,0,.35,0A.24.24,0,0,0,1,28a.29.29,0,0,0-.07-.18A.29.29,0,0,0,.75,27.75Z"/><path class="cls-2" d="M66.5,34.75a.26.26,0,0,0-.17.07.24.24,0,0,0,0,.36.26.26,0,0,0,.35,0,.27.27,0,0,0,0-.36A.29.29,0,0,0,66.5,34.75Z"/><path class="cls-2" d="M68,6a.26.26,0,0,0-.17.07.27.27,0,0,0-.08.18.29.29,0,0,0,.07.18.27.27,0,0,0,.36,0,.26.26,0,0,0,.07-.18.23.23,0,0,0-.07-.17A.25.25,0,0,0,68,6Z"/><path class="cls-2" d="M59.75,2.25a.25.25,0,0,0-.18.08.24.24,0,0,0-.07.17.25.25,0,0,0,.08.18.26.26,0,0,0,.35,0A.26.26,0,0,0,60,2.5a.24.24,0,0,0-.07-.18A.29.29,0,0,0,59.75,2.25Z"/><path class="cls-2" d="M40.5,4a.23.23,0,0,0-.17.07.24.24,0,0,0,0,.36.26.26,0,0,0,.35,0A.25.25,0,0,0,40.5,4Z"/><path class="cls-2" d="M44,9a.26.26,0,0,0-.25.25.25.25,0,0,0,.08.18.26.26,0,0,0,.35,0,.26.26,0,0,0,.07-.18A.24.24,0,0,0,44,9Z"/><path class="cls-2" d="M25.75,2a.23.23,0,0,0-.17.07.24.24,0,0,0,0,.36.26.26,0,0,0,.35,0A.24.24,0,0,0,26,2.25a.23.23,0,0,0-.07-.17A.22.22,0,0,0,25.75,2Z"/><path class="cls-2" d="M4.5,12a.23.23,0,0,0-.17.07.25.25,0,0,0-.08.18.26.26,0,0,0,.07.17.25.25,0,0,0,.36,0,.27.27,0,0,0,.07-.18A.24.24,0,0,0,4.5,12Z"/><path class="cls-2" d="M26.5,12.5a.23.23,0,0,0-.17.07.24.24,0,0,0,0,.36.26.26,0,0,0,.35,0,.24.24,0,0,0,.07-.18.26.26,0,0,0-.07-.18A.24.24,0,0,0,26.5,12.5Z"/><path class="cls-2" d="M37.25,23.5a.28.28,0,0,0-.17.07.24.24,0,0,0,0,.36.25.25,0,0,0,.34,0,.23.23,0,0,0,.08-.18.26.26,0,0,0-.07-.18A.27.27,0,0,0,37.25,23.5Z"/><path class="cls-2" d="M22,30.25a.23.23,0,0,0-.17.07.24.24,0,0,0,0,.36.26.26,0,0,0,.35,0,.25.25,0,0,0-.18-.43Z"/><path class="cls-2" d="M8.75,31.75a.26.26,0,0,0-.17.07A.27.27,0,0,0,8.5,32a.25.25,0,0,0,.08.18.26.26,0,0,0,.35,0A.29.29,0,0,0,9,32a.24.24,0,0,0-.25-.25Z"/><path class="cls-2" d="M24,43a.23.23,0,0,0-.17.07.24.24,0,0,0,0,.36.26.26,0,0,0,.35,0,.26.26,0,0,0,.07-.18.23.23,0,0,0-.07-.17A.22.22,0,0,0,24,43Z"/><path class="cls-2" d="M41.5,37.5a.26.26,0,0,0-.17.07.24.24,0,0,0,0,.36.25.25,0,0,0,.34,0,.24.24,0,0,0,.08-.18.23.23,0,0,0-.07-.17A.22.22,0,0,0,41.5,37.5Z"/><path class="cls-2" d="M51.5,34.5a.26.26,0,0,0-.17.07.24.24,0,0,0,0,.36.26.26,0,0,0,.35,0,.26.26,0,0,0,.07-.18.26.26,0,0,0-.25-.25Z"/><path class="cls-2" d="M60.75,26a.28.28,0,0,0-.17.07.25.25,0,0,0-.08.18.23.23,0,0,0,.08.18.26.26,0,0,0,.35,0,.27.27,0,0,0,0-.36A.29.29,0,0,0,60.75,26Z"/><path class="cls-2" d="M67.5,28.25a.26.26,0,0,0-.17.07.24.24,0,0,0,0,.36.27.27,0,0,0,.35,0,.27.27,0,0,0,0-.36A.29.29,0,0,0,67.5,28.25Z"/><path class="cls-2" d="M51.25,5.75a.23.23,0,0,0-.17.07.24.24,0,0,0,0,.36.26.26,0,0,0,.35,0A.24.24,0,0,0,51.5,6a.29.29,0,0,0-.07-.18A.24.24,0,0,0,51.25,5.75Z"/><path class="cls-2" d="M40,34.25a.26.26,0,0,0-.17.07.24.24,0,0,0,0,.36.26.26,0,0,0,.35,0,.26.26,0,0,0,.07-.18.23.23,0,0,0-.07-.17A.25.25,0,0,0,40,34.25Z"/><path class="cls-2" d="M53.25,57a.26.26,0,0,0-.17.07.24.24,0,0,0,0,.36.26.26,0,0,0,.35,0,.22.22,0,0,0,.07-.17.26.26,0,0,0-.07-.18A.29.29,0,0,0,53.25,57Z"/><path class="cls-2" d="M34,56a.25.25,0,0,0-.18.08.24.24,0,0,0-.07.17.23.23,0,0,0,.08.18.26.26,0,0,0,.35,0,.24.24,0,0,0,.07-.18.26.26,0,0,0-.07-.18A.29.29,0,0,0,34,56Z"/><path class="cls-2" d="M27.5,58.5a.23.23,0,0,0-.17.07.25.25,0,0,0-.08.18.24.24,0,0,0,.07.17.25.25,0,0,0,.36,0,.26.26,0,0,0,.07-.18.24.24,0,0,0-.25-.25Z"/><path class="cls-2" d="M12.75,52.75a.26.26,0,0,0-.17.07.25.25,0,0,0-.08.18.28.28,0,0,0,.07.17.26.26,0,0,0,.36,0A.26.26,0,0,0,13,53a.24.24,0,0,0-.25-.25Z"/><path class="cls-2" d="M19.75,45.5a.23.23,0,0,0-.17.07.25.25,0,0,0-.08.18.28.28,0,0,0,.07.17.25.25,0,0,0,.36,0,.26.26,0,0,0,.07-.18.24.24,0,0,0-.07-.18A.26.26,0,0,0,19.75,45.5Z"/><path class="cls-2" d="M49.5,67.5a.26.26,0,0,0-.17.07.24.24,0,0,0,0,.36.27.27,0,0,0,.35,0,.27.27,0,0,0,0-.36A.29.29,0,0,0,49.5,67.5Z"/><path class="cls-2" d="M11.75,70.25a.23.23,0,0,0-.17.07.25.25,0,0,0-.08.18.31.31,0,0,0,.07.18.27.27,0,0,0,.36,0,.27.27,0,0,0,0-.36A.24.24,0,0,0,11.75,70.25Z"/><path class="cls-2" d="M55.25,68.25a.26.26,0,0,0-.17.07.24.24,0,0,0,0,.36.26.26,0,0,0,.35,0,.27.27,0,0,0,0-.36A.29.29,0,0,0,55.25,68.25Z"/><path class="cls-2" d="M59,51.25a.26.26,0,0,0-.17.07.24.24,0,0,0,0,.36.26.26,0,0,0,.35,0,.27.27,0,0,0,.07-.18.23.23,0,0,0-.07-.17A.22.22,0,0,0,59,51.25Z"/><path class="cls-2" d="M67.5,14.75a.26.26,0,0,0-.17.07.27.27,0,0,0-.08.18.25.25,0,0,0,.08.18.26.26,0,0,0,.35,0,.26.26,0,0,0,.07-.18.23.23,0,0,0-.07-.17A.25.25,0,0,0,67.5,14.75Z"/><path class="cls-2" d="M47.25,2.25a.26.26,0,0,0-.17.07.24.24,0,0,0,0,.36.27.27,0,0,0,.35,0,.27.27,0,0,0,0-.36A.24.24,0,0,0,47.25,2.25Z"/><path class="cls-2" d="M5.25,2.25a.26.26,0,0,0-.17.07A.25.25,0,0,0,5,2.5a.28.28,0,0,0,.07.17.26.26,0,0,0,.36,0A.26.26,0,0,0,5.5,2.5a.24.24,0,0,0-.07-.18A.26.26,0,0,0,5.25,2.25Z"/><path class="cls-2" d="M4.75,31.75a.31.31,0,0,0-.18.07.27.27,0,0,0,0,.36.27.27,0,0,0,.36,0,.27.27,0,0,0,0-.36A.29.29,0,0,0,4.75,31.75Z"/><path class="cls-2" d="M69.75,59.25a.24.24,0,0,0-.17.07.24.24,0,0,0,0,.36.26.26,0,0,0,.35,0,.27.27,0,0,0,0-.36A.29.29,0,0,0,69.75,59.25Z"/><path class="cls-2" d="M23.25,58a.23.23,0,0,0-.17.07.25.25,0,0,0-.08.18.24.24,0,0,0,.07.17.25.25,0,0,0,.36,0,.27.27,0,0,0,.07-.18.26.26,0,0,0-.07-.18A.24.24,0,0,0,23.25,58Z"/><path class="cls-2" d="M20.5,54.75a.26.26,0,0,0-.17.07.24.24,0,0,0,0,.36.26.26,0,0,0,.35,0,.22.22,0,0,0,.07-.17.26.26,0,0,0-.07-.18A.29.29,0,0,0,20.5,54.75Z"/><path class="cls-2" d="M14.75,54.75a.23.23,0,0,0-.17.07.25.25,0,0,0-.08.18.31.31,0,0,0,.07.18.27.27,0,0,0,.36,0,.27.27,0,0,0,0-.36A.24.24,0,0,0,14.75,54.75Z"/><path class="cls-2" d="M2.75,58.75a.24.24,0,0,0-.17.07A.27.27,0,0,0,2.5,59a.25.25,0,0,0,.08.18.26.26,0,0,0,.35,0A.29.29,0,0,0,3,59a.24.24,0,0,0-.07-.18A.29.29,0,0,0,2.75,58.75Z"/><path class="cls-2" d="M6,60.25a.23.23,0,0,0-.17.07.27.27,0,0,0-.08.18.29.29,0,0,0,.07.18.26.26,0,0,0,.36,0,.24.24,0,0,0,.07-.18.23.23,0,0,0-.07-.17A.22.22,0,0,0,6,60.25Z"/><path class="cls-2" d="M7,69.25a.23.23,0,0,0-.17.07.27.27,0,0,0-.08.18.29.29,0,0,0,.07.18.27.27,0,0,0,.36,0,.26.26,0,0,0,.07-.18.23.23,0,0,0-.07-.17A.22.22,0,0,0,7,69.25Z"/><path class="cls-2" d="M10,63.75a.29.29,0,0,0-.18.07.31.31,0,0,0-.07.18.29.29,0,0,0,.07.18.27.27,0,0,0,.36,0,.24.24,0,0,0,.07-.18.26.26,0,0,0-.25-.25Z"/><path class="cls-2" d="M16,63.75a.31.31,0,0,0-.18.07.29.29,0,0,0-.07.18.25.25,0,0,0,.08.18.26.26,0,0,0,.35,0,.27.27,0,0,0,0-.36A.29.29,0,0,0,16,63.75Z"/><path class="cls-2" d="M16.5,68.75a.23.23,0,0,0-.17.07.25.25,0,0,0-.08.18.29.29,0,0,0,.07.18.26.26,0,0,0,.36,0,.27.27,0,0,0,0-.36A.26.26,0,0,0,16.5,68.75Z"/><path class="cls-2" d="M25.75,65a.23.23,0,0,0-.17.07.24.24,0,0,0,0,.36.26.26,0,0,0,.35,0,.27.27,0,0,0,0-.36A.24.24,0,0,0,25.75,65Z"/><path class="cls-2" d="M37,64.5a.23.23,0,0,0-.17.07.24.24,0,0,0,0,.36.26.26,0,0,0,.35,0,.27.27,0,0,0,0-.36A.26.26,0,0,0,37,64.5Z"/><path class="cls-2" d="M40.5,67.5a.26.26,0,0,0-.17.07.23.23,0,0,0-.08.18.25.25,0,0,0,.08.18.26.26,0,0,0,.35,0,.27.27,0,0,0,.07-.18.24.24,0,0,0-.07-.18A.29.29,0,0,0,40.5,67.5Z"/><path class="cls-2" d="M37.5,67.75a.26.26,0,0,0-.17.07.23.23,0,0,0-.08.18.25.25,0,0,0,.08.18.26.26,0,0,0,.35,0,.27.27,0,0,0,.07-.18.26.26,0,0,0-.07-.18A.24.24,0,0,0,37.5,67.75Z"/><path class="cls-2" d="M43.25,69.75a.25.25,0,0,0-.18.08A.24.24,0,0,0,43,70a.25.25,0,0,0,.08.18.26.26,0,0,0,.35,0,.27.27,0,0,0,0-.36A.29.29,0,0,0,43.25,69.75Z"/><path class="cls-2" d="M49.5,63.75a.26.26,0,0,0-.17.07.24.24,0,0,0,0,.36.26.26,0,0,0,.35,0,.27.27,0,0,0,0-.36A.29.29,0,0,0,49.5,63.75Z"/><path class="cls-2" d="M46,62.75a.26.26,0,0,0-.17.07.24.24,0,0,0,0,.36.27.27,0,0,0,.35,0,.27.27,0,0,0,0-.36A.29.29,0,0,0,46,62.75Z"/><path class="cls-2" d="M35.75,61a.26.26,0,0,0-.17.07.24.24,0,0,0,0,.36.26.26,0,0,0,.35,0,.27.27,0,0,0,0-.36A.29.29,0,0,0,35.75,61Z"/><path class="cls-2" d="M39.25,57a.23.23,0,0,0-.17.07.24.24,0,0,0,0,.36.26.26,0,0,0,.35,0,.27.27,0,0,0,.07-.18.26.26,0,0,0-.07-.18A.24.24,0,0,0,39.25,57Z"/><path class="cls-2" d="M24.75,54a.23.23,0,0,0-.17.07.25.25,0,0,0-.08.18.29.29,0,0,0,.07.18.27.27,0,0,0,.36,0,.25.25,0,0,0-.18-.43Z"/><path class="cls-2" d="M8.25,44.75a.23.23,0,0,0-.17.07A.25.25,0,0,0,8,45a.29.29,0,0,0,.07.18.26.26,0,0,0,.36,0A.26.26,0,0,0,8.5,45a.24.24,0,0,0-.07-.18A.29.29,0,0,0,8.25,44.75Z"/><path class="cls-2" d="M16,40.25a.31.31,0,0,0-.18.07.29.29,0,0,0-.07.18.25.25,0,0,0,.08.18.26.26,0,0,0,.35,0,.27.27,0,0,0,0-.36A.29.29,0,0,0,16,40.25Z"/><path class="cls-2" d="M10.5,38.5a.23.23,0,0,0-.17.07.27.27,0,0,0-.08.18.29.29,0,0,0,.07.18.26.26,0,0,0,.36,0,.26.26,0,0,0,.07-.18.23.23,0,0,0-.07-.17A.22.22,0,0,0,10.5,38.5Z"/><path class="cls-2" d="M5.25,35a.26.26,0,0,0-.17.07.25.25,0,0,0-.08.18.28.28,0,0,0,.07.17.26.26,0,0,0,.36,0,.26.26,0,0,0,.07-.18.24.24,0,0,0-.07-.18A.26.26,0,0,0,5.25,35Z"/><path class="cls-2" d="M2.75,40a.26.26,0,0,0-.17.07.27.27,0,0,0-.08.18.25.25,0,0,0,.08.18.26.26,0,0,0,.35,0A.29.29,0,0,0,3,40.25a.24.24,0,0,0-.07-.18A.29.29,0,0,0,2.75,40Z"/><path class="cls-2" d="M7.5,47a.25.25,0,0,0-.18.43.26.26,0,0,0,.35,0,.23.23,0,0,0,.08-.18.26.26,0,0,0-.07-.18A.29.29,0,0,0,7.5,47Z"/><path class="cls-2" d="M3.25,51.5a.26.26,0,0,0-.17.07.25.25,0,0,0-.08.18.26.26,0,0,0,.43.18.26.26,0,0,0,.07-.18.24.24,0,0,0-.07-.18A.26.26,0,0,0,3.25,51.5Z"/><path class="cls-2" d="M20.5,41.25a.26.26,0,0,0-.17.07.24.24,0,0,0,0,.36.26.26,0,0,0,.35,0,.27.27,0,0,0,.07-.18.23.23,0,0,0-.07-.17A.25.25,0,0,0,20.5,41.25Z"/><path class="cls-2" d="M17.5,36.5a.28.28,0,0,0-.17.07.25.25,0,0,0,0,.36.27.27,0,0,0,.36,0,.24.24,0,0,0,.07-.18.22.22,0,0,0-.07-.17A.25.25,0,0,0,17.5,36.5Z"/><path class="cls-2" d="M16,33a.23.23,0,0,0-.17.07.24.24,0,0,0,0,.36.26.26,0,0,0,.35,0A.25.25,0,0,0,16,33Z"/><path class="cls-2" d="M12.75,30.75a.26.26,0,0,0-.17.07.25.25,0,0,0-.08.18.31.31,0,0,0,.07.18.27.27,0,0,0,.36,0,.27.27,0,0,0,0-.36A.29.29,0,0,0,12.75,30.75Z"/><path class="cls-2" d="M12.75,25.5a.24.24,0,0,0-.17.07.27.27,0,0,0-.08.18.29.29,0,0,0,.07.18.27.27,0,0,0,.36,0,.25.25,0,0,0-.18-.43Z"/><path class="cls-2" d="M4,25.25a.26.26,0,0,0-.17.07.25.25,0,0,0-.08.18.31.31,0,0,0,.07.18.26.26,0,0,0,.35,0,.23.23,0,0,0,.08-.18.24.24,0,0,0-.07-.18A.26.26,0,0,0,4,25.25Z"/><path class="cls-2" d="M5.75,23.5a.25.25,0,0,0-.18.08.24.24,0,0,0-.07.17.29.29,0,0,0,.07.18.27.27,0,0,0,.36,0,.27.27,0,0,0,0-.36A.29.29,0,0,0,5.75,23.5Z"/><path class="cls-2" d="M11,21.5a.23.23,0,0,0-.17.07.25.25,0,0,0-.08.18.26.26,0,0,0,.07.17.25.25,0,0,0,.36,0,.27.27,0,0,0,.07-.18A.24.24,0,0,0,11,21.5Z"/><path class="cls-2" d="M11,17.5a.31.31,0,0,0-.18.07.27.27,0,0,0,0,.36.27.27,0,0,0,.36,0,.27.27,0,0,0,0-.36A.29.29,0,0,0,11,17.5Z"/><path class="cls-2" d="M15.5,13.5a.28.28,0,0,0-.17.07.25.25,0,0,0-.08.18.29.29,0,0,0,.07.18.27.27,0,0,0,.36,0,.27.27,0,0,0,0-.36A.29.29,0,0,0,15.5,13.5Z"/><path class="cls-2" d="M10,12.25a.29.29,0,0,0-.18.07.31.31,0,0,0-.07.18.29.29,0,0,0,.07.18.27.27,0,0,0,.36,0,.24.24,0,0,0,.07-.18.26.26,0,0,0-.07-.18A.24.24,0,0,0,10,12.25Z"/><path class="cls-2" d="M6,8.5a.23.23,0,0,0-.17.07.27.27,0,0,0-.08.18.29.29,0,0,0,.07.18.26.26,0,0,0,.36,0,.24.24,0,0,0,.07-.18.23.23,0,0,0-.07-.17A.22.22,0,0,0,6,8.5Z"/><path class="cls-2" d="M2.25,10a.23.23,0,0,0-.17.07.25.25,0,0,0-.08.18.29.29,0,0,0,.07.18.26.26,0,0,0,.35,0,.23.23,0,0,0,.08-.18.26.26,0,0,0-.07-.18A.27.27,0,0,0,2.25,10Z"/><path class="cls-2" d="M7.25,4.25a.26.26,0,0,0-.17.07A.27.27,0,0,0,7,4.5a.29.29,0,0,0,.07.18.27.27,0,0,0,.36,0A.29.29,0,0,0,7.5,4.5a.21.21,0,0,0-.07-.17A.22.22,0,0,0,7.25,4.25Z"/><path class="cls-2" d="M13.5,2.5a.23.23,0,0,0-.17.07.27.27,0,0,0-.08.18.29.29,0,0,0,.07.18.27.27,0,0,0,.36,0,.26.26,0,0,0,.07-.18.23.23,0,0,0-.07-.17A.22.22,0,0,0,13.5,2.5Z"/><path class="cls-2" d="M13.5,6.25a.23.23,0,0,0-.17.07.25.25,0,0,0-.08.18.26.26,0,0,0,.07.17.25.25,0,0,0,.36,0,.27.27,0,0,0,.07-.18.26.26,0,0,0-.07-.18A.24.24,0,0,0,13.5,6.25Z"/><path class="cls-2" d="M21.5,3.5a.23.23,0,0,0-.17.07.24.24,0,0,0,0,.36.26.26,0,0,0,.35,0,.26.26,0,0,0,.07-.18.23.23,0,0,0-.07-.17A.22.22,0,0,0,21.5,3.5Z"/><path class="cls-2" d="M23,6.25a.23.23,0,0,0-.17.07.25.25,0,0,0-.08.18.28.28,0,0,0,.07.17.25.25,0,0,0,.36,0,.26.26,0,0,0,.07-.18A.24.24,0,0,0,23,6.25Z"/><path class="cls-2" d="M22.25,12a.23.23,0,0,0-.17.07.25.25,0,0,0-.08.18.28.28,0,0,0,.07.17.25.25,0,0,0,.36,0,.26.26,0,0,0,.07-.18.24.24,0,0,0-.07-.18A.26.26,0,0,0,22.25,12Z"/><path class="cls-2" d="M24.25,14.5a.23.23,0,0,0-.17.07.24.24,0,0,0,0,.36.26.26,0,0,0,.35,0,.27.27,0,0,0,0-.36A.24.24,0,0,0,24.25,14.5Z"/><path class="cls-2" d="M22,18.75a.23.23,0,0,0-.17.07.25.25,0,0,0-.08.18.24.24,0,0,0,.07.17.25.25,0,0,0,.36,0,.27.27,0,0,0,.07-.18.26.26,0,0,0-.07-.18A.24.24,0,0,0,22,18.75Z"/><path class="cls-2" d="M26.25,24.25a.23.23,0,0,0-.17.07.24.24,0,0,0,0,.36.26.26,0,0,0,.35,0,.27.27,0,0,0,0-.36A.24.24,0,0,0,26.25,24.25Z"/><path class="cls-2" d="M25.75,28.5a.23.23,0,0,0-.17.07.25.25,0,0,0-.08.18.29.29,0,0,0,.07.18.25.25,0,0,0,.43-.18.24.24,0,0,0-.25-.25Z"/><path class="cls-2" d="M31.25,34.5a.28.28,0,0,0-.17.07.27.27,0,0,0-.08.18.26.26,0,0,0,.07.17.25.25,0,0,0,.36,0,.27.27,0,0,0,.07-.18.23.23,0,0,0-.07-.17A.25.25,0,0,0,31.25,34.5Z"/><path class="cls-2" d="M32.25,41a.23.23,0,0,0-.17.07.25.25,0,0,0-.08.18.28.28,0,0,0,.07.17.25.25,0,0,0,.36,0,.26.26,0,0,0,.07-.18.29.29,0,0,0-.07-.18A.24.24,0,0,0,32.25,41Z"/><path class="cls-2" d="M26,38a.23.23,0,0,0-.17.07.24.24,0,0,0,0,.36.26.26,0,0,0,.35,0,.27.27,0,0,0,0-.36A.24.24,0,0,0,26,38Z"/><path class="cls-2" d="M34.25,44.25a.26.26,0,0,0-.17.07.24.24,0,0,0,0,.36.26.26,0,0,0,.35,0,.27.27,0,0,0,.07-.18.26.26,0,0,0-.07-.18A.29.29,0,0,0,34.25,44.25Z"/><path class="cls-2" d="M37.25,43.5a.26.26,0,0,0-.17.07.24.24,0,0,0,0,.36.25.25,0,0,0,.34,0,.23.23,0,0,0,.08-.18.23.23,0,0,0-.07-.17A.22.22,0,0,0,37.25,43.5Z"/><path class="cls-2" d="M41.75,46.25a.28.28,0,0,0-.17.07.24.24,0,0,0,0,.36.26.26,0,0,0,.35,0A.27.27,0,0,0,42,46.5a.23.23,0,0,0-.07-.17A.25.25,0,0,0,41.75,46.25Z"/><path class="cls-2" d="M43,51.25a.23.23,0,0,0-.17.07.24.24,0,0,0,0,.36.26.26,0,0,0,.35,0,.25.25,0,0,0-.18-.43Z"/><path class="cls-2" d="M36.5,52.75a.26.26,0,0,0-.17.07.24.24,0,0,0,0,.36.27.27,0,0,0,.35,0,.27.27,0,0,0,0-.36A.24.24,0,0,0,36.5,52.75Z"/><path class="cls-2" d="M27.75,49.75a.28.28,0,0,0-.17.07.27.27,0,0,0-.08.18.26.26,0,0,0,.07.17.25.25,0,0,0,.36,0,.27.27,0,0,0,0-.36A.29.29,0,0,0,27.75,49.75Z"/><path class="cls-2" d="M52,50a.26.26,0,0,0-.17.07.24.24,0,0,0,0,.36.26.26,0,0,0,.35,0,.27.27,0,0,0,.07-.18.23.23,0,0,0-.07-.17A.25.25,0,0,0,52,50Z"/><path class="cls-2" d="M43.25,54.25a.26.26,0,0,0-.17.07.25.25,0,0,0-.08.18.31.31,0,0,0,.07.18.25.25,0,0,0,.43-.18.23.23,0,0,0-.07-.17A.22.22,0,0,0,43.25,54.25Z"/><path class="cls-2" d="M50.5,54a.26.26,0,0,0-.17.07.24.24,0,0,0,0,.36.26.26,0,0,0,.35,0,.27.27,0,0,0,.07-.18.23.23,0,0,0-.07-.17A.25.25,0,0,0,50.5,54Z"/><path class="cls-2" d="M59.5,54.75a.26.26,0,0,0-.17.07.24.24,0,0,0,0,.36.26.26,0,0,0,.35,0,.27.27,0,0,0,0-.36A.29.29,0,0,0,59.5,54.75Z"/><path class="cls-2" d="M58.25,58a.26.26,0,0,0-.17.07.24.24,0,0,0,0,.36.26.26,0,0,0,.35,0,.24.24,0,0,0,.07-.18.26.26,0,0,0-.07-.18A.29.29,0,0,0,58.25,58Z"/><path class="cls-2" d="M61.5,61a.23.23,0,0,0-.17.07.25.25,0,0,0-.08.18.23.23,0,0,0,.08.18.26.26,0,0,0,.35,0,.27.27,0,0,0,0-.36A.24.24,0,0,0,61.5,61Z"/><path class="cls-2" d="M58.75,64.5a.23.23,0,0,0-.17.07.24.24,0,0,0,0,.36.26.26,0,0,0,.35,0,.25.25,0,0,0-.18-.43Z"/><path class="cls-2" d="M60,67.25a.26.26,0,0,0-.17.07.25.25,0,0,0-.08.18.29.29,0,0,0,.07.18.27.27,0,0,0,.36,0,.24.24,0,0,0,.07-.18.21.21,0,0,0-.07-.17A.22.22,0,0,0,60,67.25Z"/><path class="cls-2" d="M67.5,66a.26.26,0,0,0-.17.07.27.27,0,0,0-.08.18.26.26,0,0,0,.43.18.27.27,0,0,0,.07-.18.23.23,0,0,0-.07-.17A.25.25,0,0,0,67.5,66Z"/><path class="cls-2" d="M69.5,64a.28.28,0,0,0-.17.07.25.25,0,0,0-.08.18.31.31,0,0,0,.07.18.27.27,0,0,0,.36,0,.26.26,0,0,0,.07-.18A.24.24,0,0,0,69.5,64Z"/><path class="cls-2" d="M65.75,62.25a.26.26,0,0,0-.17.07.24.24,0,0,0,0,.36.26.26,0,0,0,.35,0,.27.27,0,0,0,0-.36A.29.29,0,0,0,65.75,62.25Z"/><path class="cls-2" d="M61.75,55.5a.26.26,0,0,0-.17.07.24.24,0,0,0,0,.36.26.26,0,0,0,.35,0,.26.26,0,0,0,.07-.18.26.26,0,0,0-.25-.25Z"/><path class="cls-2" d="M60.25,48.25a.28.28,0,0,0-.17.07.24.24,0,0,0,0,.36.26.26,0,0,0,.35,0,.29.29,0,0,0,.07-.18.24.24,0,0,0-.25-.25Z"/><path class="cls-2" d="M55.5,48.25a.26.26,0,0,0-.17.07.24.24,0,0,0,0,.36.26.26,0,0,0,.35,0,.27.27,0,0,0,0-.36A.29.29,0,0,0,55.5,48.25Z"/><path class="cls-2" d="M55.5,53.25a.26.26,0,0,0-.17.07.24.24,0,0,0,0,.36.26.26,0,0,0,.35,0,.27.27,0,0,0,0-.36A.29.29,0,0,0,55.5,53.25Z"/><path class="cls-2" d="M65,46.25a.28.28,0,0,0-.17.07.24.24,0,0,0,0,.36.26.26,0,0,0,.35,0,.26.26,0,0,0,.07-.18.24.24,0,0,0-.25-.25Z"/><path class="cls-2" d="M61.25,45a.26.26,0,0,0-.17.07.24.24,0,0,0,0,.36.26.26,0,0,0,.35,0,.24.24,0,0,0,.07-.18.24.24,0,0,0-.25-.25Z"/><path class="cls-2" d="M57.75,41.25a.23.23,0,0,0-.17.07.24.24,0,0,0,0,.36.26.26,0,0,0,.35,0A.24.24,0,0,0,58,41.5a.21.21,0,0,0-.07-.17A.22.22,0,0,0,57.75,41.25Z"/><path class="cls-2" d="M52.75,39.25a.26.26,0,0,0-.17.07.24.24,0,0,0,0,.36.26.26,0,0,0,.35,0A.26.26,0,0,0,53,39.5a.26.26,0,0,0-.25-.25Z"/><path class="cls-2" d="M47.5,38.25a.28.28,0,0,0-.17.07.24.24,0,0,0,0,.36.25.25,0,0,0,.34,0,.24.24,0,0,0,.08-.18.23.23,0,0,0-.07-.17A.23.23,0,0,0,47.5,38.25Z"/><path class="cls-2" d="M44.25,32.75a.28.28,0,0,0-.17.07.24.24,0,0,0,0,.36.26.26,0,0,0,.35,0,.27.27,0,0,0,0-.36A.26.26,0,0,0,44.25,32.75Z"/><path class="cls-2" d="M34,30.5a.23.23,0,0,0-.17.07.24.24,0,0,0,0,.36.26.26,0,0,0,.35,0,.27.27,0,0,0,0-.36A.29.29,0,0,0,34,30.5Z"/><path class="cls-2" d="M40.75,24a.23.23,0,0,0-.17.07.24.24,0,0,0,0,.36.26.26,0,0,0,.35,0,.27.27,0,0,0,0-.36A.24.24,0,0,0,40.75,24Z"/><path class="cls-2" d="M45.75,19.75a.23.23,0,0,0-.17.07.24.24,0,0,0,0,.36.26.26,0,0,0,.35,0A.24.24,0,0,0,46,20a.29.29,0,0,0-.07-.18A.24.24,0,0,0,45.75,19.75Z"/><path class="cls-2" d="M46.5,15.25a.28.28,0,0,0-.17.07.24.24,0,0,0,0,.36.26.26,0,0,0,.35,0,.26.26,0,0,0,.07-.18.26.26,0,0,0-.25-.25Z"/><path class="cls-2" d="M42,12.5a.23.23,0,0,0-.17.07.24.24,0,0,0,0,.36.26.26,0,0,0,.35,0,.29.29,0,0,0,.07-.18.24.24,0,0,0-.07-.18A.26.26,0,0,0,42,12.5Z"/><path class="cls-2" d="M40,9.25a.28.28,0,0,0-.17.07.25.25,0,0,0-.08.18.23.23,0,0,0,.08.18.26.26,0,0,0,.35,0,.24.24,0,0,0,.07-.18.26.26,0,0,0-.07-.18A.29.29,0,0,0,40,9.25Z"/><path class="cls-2" d="M36,9.25a.23.23,0,0,0-.17.07.24.24,0,0,0,0,.36.26.26,0,0,0,.35,0,.27.27,0,0,0,.07-.18.26.26,0,0,0-.07-.18A.29.29,0,0,0,36,9.25Z"/><path class="cls-2" d="M36.5,19.25a.24.24,0,0,0-.17.07.24.24,0,0,0,0,.36.26.26,0,0,0,.35,0,.27.27,0,0,0,.07-.18.23.23,0,0,0-.07-.17A.25.25,0,0,0,36.5,19.25Z"/><path class="cls-2" d="M30,8.5a.26.26,0,0,0-.17.07.24.24,0,0,0,0,.36.26.26,0,0,0,.35,0,.26.26,0,0,0,.07-.18.22.22,0,0,0-.07-.17A.25.25,0,0,0,30,8.5Z"/><path class="cls-2" d="M31.5,3.5a.25.25,0,0,0-.18.08.24.24,0,0,0-.07.17.23.23,0,0,0,.08.18.26.26,0,0,0,.34,0,.22.22,0,0,0,.08-.18.26.26,0,0,0-.07-.18A.29.29,0,0,0,31.5,3.5Z"/><path class="cls-2" d="M37,1a.23.23,0,0,0-.17.07.24.24,0,0,0,0,.36.26.26,0,0,0,.35,0,.24.24,0,0,0,.07-.18A.24.24,0,0,0,37,1Z"/><path class="cls-2" d="M58.75,15a.23.23,0,0,0-.17.07.24.24,0,0,0,0,.36.26.26,0,0,0,.35,0,.25.25,0,0,0-.18-.43Z"/><path class="cls-2" d="M63,15a.28.28,0,0,0-.17.07.24.24,0,0,0,0,.36.26.26,0,0,0,.35,0,.24.24,0,0,0,.07-.18.21.21,0,0,0-.07-.17A.22.22,0,0,0,63,15Z"/><path class="cls-2" d="M60,21.25a.28.28,0,0,0-.17.07.25.25,0,0,0-.08.18.23.23,0,0,0,.08.18.26.26,0,0,0,.35,0,.29.29,0,0,0,.07-.18.24.24,0,0,0-.07-.18A.29.29,0,0,0,60,21.25Z"/><path class="cls-2" d="M54.5,21.5a.24.24,0,0,0-.17.07.27.27,0,0,0-.08.18.26.26,0,0,0,.43.18.27.27,0,0,0,.07-.18.23.23,0,0,0-.07-.17A.25.25,0,0,0,54.5,21.5Z"/><path class="cls-2" d="M59.25,27.75a.26.26,0,0,0-.17.07A.27.27,0,0,0,59,28a.26.26,0,0,0,.43.18A.27.27,0,0,0,59.5,28a.26.26,0,0,0-.25-.25Z"/><path class="cls-2" d="M54.75,30.25a.26.26,0,0,0-.17.07.24.24,0,0,0,0,.36.26.26,0,0,0,.35,0,.27.27,0,0,0,0-.36A.29.29,0,0,0,54.75,30.25Z"/><path class="cls-2" d="M55.75,36.5a.23.23,0,0,0-.17.07.24.24,0,0,0,0,.36.26.26,0,0,0,.35,0,.25.25,0,0,0-.18-.43Z"/><path class="cls-2" d="M62.5,29.75a.26.26,0,0,0-.17.07.24.24,0,0,0,0,.36.26.26,0,0,0,.34,0,.23.23,0,0,0,.08-.18.24.24,0,0,0-.25-.25Z"/><path class="cls-2" d="M67,24.5a.26.26,0,0,0-.17.07.24.24,0,0,0,0,.36.27.27,0,0,0,.35,0,.24.24,0,0,0,.07-.18.29.29,0,0,0-.07-.18A.24.24,0,0,0,67,24.5Z"/><path class="cls-2" d="M69.5,17.75a.26.26,0,0,0-.17.07.24.24,0,0,0,0,.36.26.26,0,0,0,.35,0,.27.27,0,0,0,0-.36A.29.29,0,0,0,69.5,17.75Z"/><path class="cls-2" d="M63.5,10.25a.26.26,0,0,0-.17.07.27.27,0,0,0-.08.18.25.25,0,0,0,.08.18.26.26,0,0,0,.35,0,.26.26,0,0,0,.07-.18.23.23,0,0,0-.07-.17A.22.22,0,0,0,63.5,10.25Z"/><path class="cls-2" d="M69.25,8.5a.23.23,0,0,0-.17.07.24.24,0,0,0,0,.36.26.26,0,0,0,.35,0,.26.26,0,0,0,.07-.18.26.26,0,0,0-.25-.25Z"/><path class="cls-2" d="M64.75,6.5a.24.24,0,0,0-.17.07.27.27,0,0,0-.08.18.28.28,0,0,0,.07.17.26.26,0,0,0,.36,0A.27.27,0,0,0,65,6.75a.26.26,0,0,0-.25-.25Z"/><path class="cls-2" d="M65.75,3.75a.26.26,0,0,0-.17.07.24.24,0,0,0,0,.36.26.26,0,0,0,.35,0A.26.26,0,0,0,66,4a.24.24,0,0,0-.07-.18A.29.29,0,0,0,65.75,3.75Z"/><path class="cls-2" d="M69.25,1.5a.26.26,0,0,0-.17.07.27.27,0,0,0-.08.18.25.25,0,0,0,.08.18.26.26,0,0,0,.35,0,.24.24,0,0,0,.07-.18.22.22,0,0,0-.07-.17A.22.22,0,0,0,69.25,1.5Z"/><path class="cls-2" d="M62.5,1.75a.26.26,0,0,0-.17.07.24.24,0,0,0,0,.36.25.25,0,0,0,.34,0A.23.23,0,0,0,62.75,2a.26.26,0,0,0-.07-.18A.27.27,0,0,0,62.5,1.75Z"/><path class="cls-2" d="M60.75,6.25a.26.26,0,0,0-.17.07.24.24,0,0,0,0,.36.26.26,0,0,0,.35,0A.26.26,0,0,0,61,6.5a.26.26,0,0,0-.25-.25Z"/><path class="cls-2" d="M52.75,2.25a.26.26,0,0,0-.17.07.24.24,0,0,0,0,.36.26.26,0,0,0,.35,0A.26.26,0,0,0,53,2.5a.26.26,0,0,0-.25-.25Z"/><path class="cls-2" d="M44.75,5.5a.24.24,0,0,0-.17.07.24.24,0,0,0,0,.36.26.26,0,0,0,.35,0A.24.24,0,0,0,45,5.75a.22.22,0,0,0-.07-.17A.25.25,0,0,0,44.75,5.5Z"/><path class="cls-2" d="M44.5.75a.28.28,0,0,0-.17.07.24.24,0,0,0,0,.36.26.26,0,0,0,.35,0A.24.24,0,0,0,44.75,1a.24.24,0,0,0-.07-.18A.26.26,0,0,0,44.5.75Z"/><path class="cls-2" d="M28.5.75a.25.25,0,0,0-.18.08.24.24,0,0,0-.07.17.25.25,0,0,0,.08.18.26.26,0,0,0,.35,0,.27.27,0,0,0,0-.36A.27.27,0,0,0,28.5.75Z"/><path class="cls-2" d="M.75,42.5a.26.26,0,0,0-.17.07.27.27,0,0,0-.08.18.25.25,0,0,0,.08.18.26.26,0,0,0,.35,0A.29.29,0,0,0,1,42.75a.24.24,0,0,0-.25-.25Z"/><path class="cls-2" d="M24.5,71a.23.23,0,0,0-.17.07.27.27,0,0,0-.08.18.29.29,0,0,0,.07.18.27.27,0,0,0,.36,0,.29.29,0,0,0,.07-.18.21.21,0,0,0-.07-.17A.22.22,0,0,0,24.5,71Z"/><path class="cls-2" d="M13.25,67a.29.29,0,0,0-.18.07.31.31,0,0,0-.07.18.29.29,0,0,0,.07.18.27.27,0,0,0,.36,0,.24.24,0,0,0,.07-.18.26.26,0,0,0-.25-.25Z"/><path class="cls-2" d="M71,36.75a.26.26,0,0,0-.17.07.24.24,0,0,0,0,.36.27.27,0,0,0,.35,0,.25.25,0,0,0-.18-.43Z"/></pattern></defs><circle class="cls-3" cx="71.47" cy="68.21" r="66.5"/><circle class="cls-4" cx="66.73" cy="66.5" r="66.5"/><circle class="cls-5" cx="66.5" cy="66.57" r="66.5"/><path class="cls-6" d="M29.39,35.07A198.72,198.72,0,0,1,54.05,50.53Q65.77,59,76.68,68.35T97.77,88a195.69,195.69,0,0,1,19,22A197.54,197.54,0,0,1,92.14,94.54Q80.43,86.1,69.52,76.7C62.24,70.45,55.2,63.93,48.44,57.07A199.54,199.54,0,0,1,29.39,35.07Z" transform="translate(-8.36 -6.15)"/><path class="cls-6" d="M117.85,35.23a198.84,198.84,0,0,1-19,22Q88.67,67.58,77.74,76.94T55.12,94.82a198.17,198.17,0,0,1-24.66,15.49,195.9,195.9,0,0,1,19-22Q59.63,78,70.57,68.6T93.2,50.73A200,200,0,0,1,117.85,35.23Z" transform="translate(-8.36 -6.15)"/></svg>